<svg xmlns="http://www.w3.org/2000/svg" xmlns:xlink="http://www.w3.org/1999/xlink" width="500" zoomAndPan="magnify" viewBox="0 0 375 374.999991" height="500" preserveAspectRatio="xMidYMid meet" version="1.0"><defs><g/><clipPath id="ffafcaf232"><path d="M 37.5 112.5 L 116.25 112.5 L 116.25 262.5 L 37.5 262.5 Z M 37.5 112.5 " clip-rule="nonzero"/></clipPath></defs><g fill="#ffffff" fill-opacity="1"><g transform="translate(120.907225, 211.874986)"><g><path d="M 32.3125 -39.046875 L 26.015625 -39.046875 C 25.675781 -39.046875 25.429688 -38.804688 25.429688 -38.609375 L 25.429688 -13.179688 L 7.417969 -38.902344 C 7.371094 -39 7.078125 -39.046875 6.980469 -39.046875 L 0.488281 -39.046875 C 0.242188 -39.046875 0 -38.804688 0 -38.609375 L 0 -9.371094 L 7.46875 -9.371094 L 7.46875 -25.871094 L 25.429688 -0.144531 C 25.480469 -0.046875 25.773438 0 25.871094 0 L 32.3125 0 C 32.652344 0 32.847656 -0.242188 32.847656 -0.4375 L 32.847656 -38.609375 C 32.847656 -38.804688 32.652344 -39.046875 32.3125 -39.046875 Z M 32.3125 -39.046875 "/></g></g></g><g fill="#ffffff" fill-opacity="1"><g transform="translate(161.077309, 211.874986)"><g><path d="M 18.546875 -7.273438 L 7.46875 -7.273438 L 7.46875 -16.058594 L 22.792969 -16.058594 C 23.085938 -16.058594 23.332031 -16.300781 23.332031 -16.496094 L 23.332031 -22.695312 C 23.332031 -22.941406 23.085938 -23.136719 22.792969 -23.136719 L 7.46875 -23.136719 L 7.46875 -31.96875 L 18.546875 -31.96875 L 18.546875 -39.046875 L 0.535156 -39.046875 C 0.242188 -39.046875 0 -38.804688 0 -38.609375 L 0 -0.4375 C 0 -0.242188 0.242188 0 0.535156 0 L 18.546875 0 Z M 18.546875 -7.273438 "/></g></g></g><g fill="#ffffff" fill-opacity="1"><g transform="translate(191.241641, 211.874986)"><g><path d="M 21.085938 -7.273438 L 0 -7.273438 L 0 -0.4375 C 0 -0.242188 0.242188 0 0.535156 0 L 21.085938 0 C 21.425781 0 21.621094 -0.242188 21.621094 -0.4375 L 21.621094 -6.785156 C 21.621094 -7.027344 21.425781 -7.273438 21.085938 -7.273438 Z M 7.46875 -14.742188 L 7.46875 -38.609375 C 7.46875 -38.804688 7.273438 -39.046875 6.980469 -39.046875 L 0.535156 -39.046875 C 0.242188 -39.046875 0 -38.804688 0 -38.609375 L 0 -14.742188 Z M 7.46875 -14.742188 "/></g></g></g><g fill="#ffffff" fill-opacity="1"><g transform="translate(219.648868, 211.874986)"><g><path d="M 28.796875 -39.046875 L 22.453125 -39.046875 C 22.109375 -39.046875 21.914062 -38.804688 21.914062 -38.609375 L 21.914062 -13.03125 C 21.914062 -9.078125 18.304688 -7.175781 14.644531 -7.175781 C 11.03125 -7.175781 7.808594 -9.226562 7.371094 -13.082031 L 7.371094 -31.96875 L 0 -31.96875 L 0 -13.03125 C 0 -4.980469 6.589844 0 14.644531 0 C 22.941406 0 29.285156 -4.785156 29.285156 -13.03125 L 29.285156 -38.609375 C 29.285156 -38.804688 29.042969 -39.046875 28.796875 -39.046875 Z M 28.796875 -39.046875 "/></g></g></g><g fill="#ffffff" fill-opacity="1"><g transform="translate(256.060693, 211.874986)"><g><path d="M 17.914062 -21.671875 C 15.132812 -22.988281 12.398438 -22.988281 12.152344 -22.988281 C 9.664062 -22.988281 7.273438 -24.453125 7.273438 -27.285156 C 7.273438 -30.410156 9.46875 -32.019531 12.152344 -32.019531 C 14.691406 -32.019531 16.839844 -30.703125 16.9375 -27.917969 C 16.9375 -27.773438 17.179688 -27.527344 17.472656 -27.527344 L 23.574219 -27.527344 C 23.917969 -27.527344 24.160156 -27.773438 24.113281 -27.917969 C 24.015625 -34.558594 18.839844 -39.046875 12.152344 -39.046875 C 5.90625 -39.046875 0 -34.605469 0 -27.285156 C 0 -22.746094 2.292969 -19.28125 6.34375 -17.425781 C 9.175781 -16.105469 11.8125 -16.105469 12.152344 -16.105469 C 14.351562 -16.007812 17.035156 -14.253906 17.035156 -11.371094 C 17.035156 -8.785156 14.742188 -7.027344 12.152344 -7.027344 C 12.152344 -7.027344 12.152344 -7.027344 12.105469 -7.027344 L 12.105469 0 C 12.152344 0 12.152344 0 12.152344 0 C 18.402344 0 24.257812 -4.050781 24.257812 -11.371094 C 24.257812 -15.960938 22.011719 -19.769531 17.914062 -21.671875 Z M 17.914062 -21.671875 "/></g></g></g><g fill="#ffffff" fill-opacity="1"><g transform="translate(287.201209, 211.874986)"><g><path d="M 30.652344 -0.585938 L 15.8125 -38.753906 C 15.667969 -39.144531 14.984375 -39.144531 14.839844 -38.753906 L 0.046875 -0.585938 C -0.0976562 -0.292969 0.0976562 0 0.535156 0 L 7.222656 0 C 7.417969 0 7.664062 -0.0976562 7.710938 -0.292969 L 15.328125 -22.0625 L 23.039062 -0.292969 C 23.085938 -0.0976562 23.332031 0 23.476562 0 L 30.214844 0 C 30.554688 0 30.800781 -0.292969 30.652344 -0.585938 Z M 30.652344 -0.585938 "/></g></g></g><g fill="#f1ca2e" fill-opacity="1"><g transform="translate(171.405915, 228.86165)"><g><path d="M 3.1875 -8.203125 L 0.28125 -8.203125 L 0.28125 -9.65625 L 7.859375 -9.65625 L 7.859375 -8.203125 L 4.9375 -8.203125 L 4.9375 0 L 3.1875 0 Z M 3.1875 -8.203125 "/></g></g></g><g fill="#f1ca2e" fill-opacity="1"><g transform="translate(183.074466, 228.86165)"><g><path d="M 0.828125 -9.65625 L 7.359375 -9.65625 L 7.359375 -8.203125 L 2.578125 -8.203125 L 2.578125 -5.546875 L 6.125 -5.546875 L 6.125 -4.109375 L 2.578125 -4.109375 L 2.578125 -1.453125 L 7.359375 -1.453125 L 7.359375 0 L 0.828125 0 Z M 0.828125 -9.65625 "/></g></g></g><g fill="#f1ca2e" fill-opacity="1"><g transform="translate(194.384106, 228.86165)"><g><path d="M 5.71875 0.203125 C 4.707031 0.203125 3.804688 0 3.015625 -0.40625 C 2.234375 -0.8125 1.625 -1.394531 1.1875 -2.15625 C 0.757812 -2.914062 0.546875 -3.804688 0.546875 -4.828125 C 0.546875 -5.835938 0.757812 -6.722656 1.1875 -7.484375 C 1.625 -8.242188 2.234375 -8.828125 3.015625 -9.234375 C 3.804688 -9.648438 4.707031 -9.859375 5.71875 -9.859375 C 7.050781 -9.859375 8.164062 -9.539062 9.0625 -8.90625 L 9.0625 -7.234375 C 8.257812 -7.921875 7.195312 -8.265625 5.875 -8.265625 C 5.164062 -8.265625 4.539062 -8.125 4 -7.84375 C 3.46875 -7.5625 3.054688 -7.160156 2.765625 -6.640625 C 2.472656 -6.128906 2.328125 -5.523438 2.328125 -4.828125 C 2.328125 -4.117188 2.472656 -3.503906 2.765625 -2.984375 C 3.066406 -2.472656 3.484375 -2.078125 4.015625 -1.796875 C 4.554688 -1.515625 5.175781 -1.375 5.875 -1.375 C 6.550781 -1.375 7.15625 -1.457031 7.6875 -1.625 C 8.226562 -1.800781 8.722656 -2.078125 9.171875 -2.453125 L 9.171875 -0.78125 C 8.328125 -0.125 7.175781 0.203125 5.71875 0.203125 Z M 5.71875 0.203125 "/></g></g></g><g fill="#f1ca2e" fill-opacity="1"><g transform="translate(207.640191, 228.86165)"><g><path d="M 0.828125 -9.65625 L 2.578125 -9.65625 L 2.578125 -5.65625 L 7.21875 -5.65625 L 7.21875 -9.65625 L 8.96875 -9.65625 L 8.96875 0 L 7.21875 0 L 7.21875 -4.203125 L 2.578125 -4.203125 L 2.578125 0 L 0.828125 0 Z M 0.828125 -9.65625 "/></g></g></g><g fill="#f1ca2e" fill-opacity="1"><g transform="translate(220.965296, 228.86165)"><g/></g></g><g fill="#f1ca2e" fill-opacity="1"><g transform="translate(229.472598, 228.86165)"><g><path d="M 4.03125 0.203125 C 3 0.203125 2.160156 -0.0234375 1.515625 -0.484375 C 0.867188 -0.941406 0.546875 -1.585938 0.546875 -2.421875 C 0.546875 -3.035156 0.710938 -3.554688 1.046875 -3.984375 C 1.390625 -4.410156 1.929688 -4.847656 2.671875 -5.296875 C 2.242188 -5.691406 1.921875 -6.066406 1.703125 -6.421875 C 1.484375 -6.773438 1.375 -7.160156 1.375 -7.578125 C 1.375 -8.023438 1.488281 -8.421875 1.71875 -8.765625 C 1.945312 -9.109375 2.265625 -9.375 2.671875 -9.5625 C 3.078125 -9.757812 3.550781 -9.859375 4.09375 -9.859375 C 4.613281 -9.859375 5.070312 -9.757812 5.46875 -9.5625 C 5.875 -9.363281 6.1875 -9.09375 6.40625 -8.75 C 6.625 -8.40625 6.734375 -8.015625 6.734375 -7.578125 C 6.734375 -7.054688 6.601562 -6.601562 6.34375 -6.21875 C 6.082031 -5.84375 5.644531 -5.457031 5.03125 -5.0625 L 7.390625 -2.828125 C 7.640625 -3.253906 7.765625 -3.976562 7.765625 -5 L 9.1875 -5 C 9.1875 -4.28125 9.132812 -3.679688 9.03125 -3.203125 C 8.925781 -2.722656 8.738281 -2.257812 8.46875 -1.8125 L 10.390625 0 L 8.34375 0 L 7.4375 -0.828125 C 7.019531 -0.472656 6.523438 -0.210938 5.953125 -0.046875 C 5.390625 0.117188 4.75 0.203125 4.03125 0.203125 Z M 3.984375 -5.859375 C 4.453125 -6.128906 4.789062 -6.390625 5 -6.640625 C 5.207031 -6.890625 5.3125 -7.164062 5.3125 -7.46875 C 5.3125 -7.820312 5.203125 -8.109375 4.984375 -8.328125 C 4.765625 -8.546875 4.46875 -8.65625 4.09375 -8.65625 C 3.71875 -8.65625 3.421875 -8.546875 3.203125 -8.328125 C 2.984375 -8.109375 2.875 -7.820312 2.875 -7.46875 C 2.875 -7.207031 2.957031 -6.960938 3.125 -6.734375 C 3.300781 -6.515625 3.585938 -6.222656 3.984375 -5.859375 Z M 4.046875 -0.953125 C 4.546875 -0.953125 5 -1.023438 5.40625 -1.171875 C 5.820312 -1.316406 6.171875 -1.519531 6.453125 -1.78125 L 3.796875 -4.34375 C 3.242188 -4.09375 2.835938 -3.8125 2.578125 -3.5 C 2.316406 -3.1875 2.1875 -2.828125 2.1875 -2.421875 C 2.1875 -1.941406 2.367188 -1.578125 2.734375 -1.328125 C 3.097656 -1.078125 3.535156 -0.953125 4.046875 -0.953125 Z M 4.046875 -0.953125 "/></g></g></g><g fill="#f1ca2e" fill-opacity="1"><g transform="translate(243.805447, 228.86165)"><g/></g></g><g fill="#f1ca2e" fill-opacity="1"><g transform="translate(252.31275, 228.86165)"><g><path d="M 0.828125 -9.65625 L 4.0625 -9.65625 C 5.113281 -9.65625 6.023438 -9.460938 6.796875 -9.078125 C 7.566406 -8.691406 8.160156 -8.140625 8.578125 -7.421875 C 8.992188 -6.703125 9.203125 -5.851562 9.203125 -4.875 C 9.203125 -3.269531 8.734375 -2.054688 7.796875 -1.234375 C 6.867188 -0.410156 5.570312 0 3.90625 0 L 0.828125 0 Z M 3.9375 -1.453125 C 5.0625 -1.453125 5.925781 -1.753906 6.53125 -2.359375 C 7.132812 -2.960938 7.4375 -3.800781 7.4375 -4.875 C 7.4375 -5.53125 7.300781 -6.109375 7.03125 -6.609375 C 6.757812 -7.109375 6.375 -7.5 5.875 -7.78125 C 5.382812 -8.0625 4.796875 -8.203125 4.109375 -8.203125 L 2.578125 -8.203125 L 2.578125 -1.453125 Z M 3.9375 -1.453125 "/></g></g></g><g fill="#f1ca2e" fill-opacity="1"><g transform="translate(265.59645, 228.86165)"><g><path d="M 0.828125 -9.65625 L 7.359375 -9.65625 L 7.359375 -8.203125 L 2.578125 -8.203125 L 2.578125 -5.546875 L 6.125 -5.546875 L 6.125 -4.109375 L 2.578125 -4.109375 L 2.578125 -1.453125 L 7.359375 -1.453125 L 7.359375 0 L 0.828125 0 Z M 0.828125 -9.65625 "/></g></g></g><g fill="#f1ca2e" fill-opacity="1"><g transform="translate(276.906095, 228.86165)"><g><path d="M 3.625 0.203125 C 3.050781 0.203125 2.484375 0.148438 1.921875 0.046875 C 1.367188 -0.0546875 0.910156 -0.195312 0.546875 -0.375 L 0.546875 -1.875 C 1.015625 -1.65625 1.5 -1.488281 2 -1.375 C 2.507812 -1.269531 3.007812 -1.21875 3.5 -1.21875 C 4.113281 -1.21875 4.582031 -1.332031 4.90625 -1.5625 C 5.226562 -1.789062 5.390625 -2.109375 5.390625 -2.515625 C 5.390625 -2.796875 5.3125 -3.03125 5.15625 -3.21875 C 5.007812 -3.414062 4.796875 -3.582031 4.515625 -3.71875 C 4.234375 -3.863281 3.796875 -4.050781 3.203125 -4.28125 C 2.296875 -4.644531 1.640625 -5.050781 1.234375 -5.5 C 0.835938 -5.957031 0.640625 -6.523438 0.640625 -7.203125 C 0.640625 -7.722656 0.78125 -8.1875 1.0625 -8.59375 C 1.34375 -9 1.738281 -9.3125 2.25 -9.53125 C 2.769531 -9.75 3.367188 -9.859375 4.046875 -9.859375 C 4.597656 -9.859375 5.085938 -9.8125 5.515625 -9.71875 C 5.941406 -9.632812 6.363281 -9.503906 6.78125 -9.328125 L 6.78125 -7.859375 C 5.976562 -8.242188 5.164062 -8.4375 4.34375 -8.4375 C 3.757812 -8.4375 3.304688 -8.328125 2.984375 -8.109375 C 2.660156 -7.898438 2.5 -7.597656 2.5 -7.203125 C 2.5 -6.910156 2.570312 -6.675781 2.71875 -6.5 C 2.863281 -6.320312 3.054688 -6.171875 3.296875 -6.046875 C 3.546875 -5.921875 3.988281 -5.722656 4.625 -5.453125 C 5.269531 -5.191406 5.78125 -4.929688 6.15625 -4.671875 C 6.53125 -4.410156 6.8125 -4.109375 7 -3.765625 C 7.1875 -3.421875 7.28125 -3 7.28125 -2.5 C 7.28125 -1.644531 6.96875 -0.976562 6.34375 -0.5 C 5.726562 -0.03125 4.820312 0.203125 3.625 0.203125 Z M 3.625 0.203125 "/></g></g></g><g fill="#f1ca2e" fill-opacity="1"><g transform="translate(288.270959, 228.86165)"><g><path d="M 0.828125 -9.65625 L 2.578125 -9.65625 L 2.578125 0 L 0.828125 0 Z M 0.828125 -9.65625 "/></g></g></g><g fill="#f1ca2e" fill-opacity="1"><g transform="translate(295.218346, 228.86165)"><g><path d="M 5.71875 0.203125 C 4.707031 0.203125 3.804688 0 3.015625 -0.40625 C 2.234375 -0.8125 1.625 -1.394531 1.1875 -2.15625 C 0.757812 -2.914062 0.546875 -3.804688 0.546875 -4.828125 C 0.546875 -5.835938 0.757812 -6.722656 1.1875 -7.484375 C 1.625 -8.242188 2.234375 -8.828125 3.015625 -9.234375 C 3.804688 -9.648438 4.707031 -9.859375 5.71875 -9.859375 C 6.40625 -9.859375 7.019531 -9.785156 7.5625 -9.640625 C 8.113281 -9.492188 8.609375 -9.257812 9.046875 -8.9375 L 9.046875 -7.265625 C 8.640625 -7.617188 8.171875 -7.875 7.640625 -8.03125 C 7.117188 -8.1875 6.53125 -8.265625 5.875 -8.265625 C 5.207031 -8.265625 4.601562 -8.125 4.0625 -7.84375 C 3.53125 -7.5625 3.109375 -7.160156 2.796875 -6.640625 C 2.484375 -6.117188 2.328125 -5.515625 2.328125 -4.828125 C 2.328125 -4.117188 2.472656 -3.503906 2.765625 -2.984375 C 3.054688 -2.460938 3.460938 -2.0625 3.984375 -1.78125 C 4.515625 -1.507812 5.113281 -1.375 5.78125 -1.375 C 6.488281 -1.375 7.078125 -1.492188 7.546875 -1.734375 L 7.546875 -3.890625 L 5.90625 -3.890625 L 5.90625 -5.296875 L 9.296875 -5.296875 L 9.296875 -0.78125 C 8.441406 -0.125 7.25 0.203125 5.71875 0.203125 Z M 5.71875 0.203125 "/></g></g></g><g fill="#f1ca2e" fill-opacity="1"><g transform="translate(308.598663, 228.86165)"><g><path d="M 0.828125 -9.65625 L 2.484375 -9.65625 L 7 -2.921875 L 7 -9.65625 L 8.75 -9.65625 L 8.75 0 L 7.09375 0 L 2.578125 -6.734375 L 2.578125 0 L 0.828125 0 Z M 0.828125 -9.65625 "/></g></g></g><g clip-path="url(#ffafcaf232)"><path fill="#f1ca2e" d="M 79.617188 116.898438 C 80.464844 116.746094 81.132812 115.988281 81.132812 115.078125 C 81.132812 114.046875 80.285156 113.199219 79.253906 113.199219 C 78.222656 113.199219 77.375 114.046875 77.375 115.078125 C 77.375 115.988281 78.042969 116.746094 78.890625 116.898438 L 78.890625 115.078125 C 78.890625 114.894531 79.042969 114.742188 79.222656 114.742188 C 79.40625 114.742188 79.554688 114.894531 79.554688 115.078125 L 79.554688 116.898438 Z M 80.496094 142.914062 C 80.617188 143.035156 80.859375 143.035156 80.980469 142.914062 C 81.101562 142.792969 81.101562 142.546875 80.980469 142.425781 C 80.859375 142.304688 80.617188 142.304688 80.496094 142.425781 C 80.34375 142.546875 80.34375 142.761719 80.496094 142.914062 Z M 81.949219 144.367188 C 82.070312 144.488281 82.3125 144.488281 82.433594 144.367188 C 82.554688 144.246094 82.554688 144.003906 82.433594 143.882812 C 82.3125 143.761719 82.070312 143.761719 81.949219 143.882812 C 81.828125 144.035156 81.828125 144.246094 81.949219 144.367188 Z M 83.433594 145.855469 C 83.554688 145.976562 83.796875 145.976562 83.917969 145.855469 C 84.039062 145.730469 84.039062 145.488281 83.917969 145.367188 C 83.796875 145.246094 83.554688 145.246094 83.433594 145.367188 C 83.3125 145.488281 83.3125 145.730469 83.433594 145.855469 Z M 84.917969 147.339844 C 85.039062 147.460938 85.28125 147.460938 85.402344 147.339844 C 85.523438 147.21875 85.523438 146.976562 85.402344 146.855469 C 85.28125 146.734375 85.039062 146.734375 84.917969 146.855469 C 84.769531 146.976562 84.769531 147.1875 84.917969 147.339844 Z M 86.402344 148.824219 C 86.523438 148.945312 86.769531 148.945312 86.890625 148.824219 C 87.011719 148.703125 87.011719 148.460938 86.890625 148.339844 C 86.769531 148.21875 86.523438 148.21875 86.402344 148.339844 C 86.253906 148.460938 86.253906 148.671875 86.402344 148.824219 Z M 87.859375 150.28125 C 87.980469 150.402344 88.222656 150.402344 88.34375 150.28125 C 88.464844 150.160156 88.464844 149.917969 88.34375 149.796875 C 88.222656 149.675781 87.980469 149.675781 87.859375 149.796875 C 87.738281 149.945312 87.738281 150.160156 87.859375 150.28125 Z M 89.34375 151.765625 C 89.464844 151.886719 89.707031 151.886719 89.828125 151.765625 C 89.949219 151.644531 89.949219 151.402344 89.828125 151.28125 C 89.707031 151.160156 89.464844 151.160156 89.34375 151.28125 C 89.222656 151.402344 89.222656 151.644531 89.34375 151.765625 Z M 90.828125 153.253906 C 90.949219 153.375 91.191406 153.375 91.3125 153.253906 C 91.433594 153.128906 91.433594 152.886719 91.3125 152.765625 C 91.191406 152.644531 90.949219 152.644531 90.828125 152.765625 C 90.675781 152.886719 90.675781 153.101562 90.828125 153.253906 Z M 92.3125 154.738281 C 92.433594 154.859375 92.675781 154.859375 92.796875 154.738281 C 92.917969 154.617188 92.917969 154.375 92.796875 154.253906 C 92.675781 154.132812 92.433594 154.132812 92.3125 154.253906 C 92.160156 154.375 92.160156 154.585938 92.3125 154.738281 Z M 93.765625 156.191406 C 93.886719 156.3125 94.128906 156.3125 94.25 156.191406 C 94.371094 156.070312 94.371094 155.828125 94.25 155.707031 C 94.128906 155.585938 93.886719 155.585938 93.765625 155.707031 C 93.644531 155.828125 93.644531 156.070312 93.765625 156.191406 Z M 95.25 157.679688 C 95.371094 157.800781 95.613281 157.800781 95.734375 157.679688 C 95.855469 157.558594 95.855469 157.316406 95.734375 157.195312 C 95.613281 157.074219 95.371094 157.074219 95.25 157.195312 C 95.128906 157.316406 95.128906 157.558594 95.25 157.679688 Z M 96.734375 159.164062 C 96.855469 159.285156 97.097656 159.285156 97.21875 159.164062 C 97.34375 159.042969 97.34375 158.800781 97.21875 158.679688 C 97.097656 158.558594 96.855469 158.558594 96.734375 158.679688 C 96.585938 158.800781 96.585938 159.011719 96.734375 159.164062 Z M 98.21875 160.648438 C 98.339844 160.773438 98.585938 160.773438 98.707031 160.648438 C 98.828125 160.527344 98.828125 160.285156 98.707031 160.164062 C 98.585938 160.042969 98.339844 160.042969 98.21875 160.164062 C 98.070312 160.285156 98.070312 160.5 98.21875 160.648438 Z M 99.675781 162.105469 C 99.796875 162.226562 100.039062 162.226562 100.160156 162.105469 C 100.28125 161.984375 100.28125 161.742188 100.160156 161.621094 C 100.039062 161.5 99.796875 161.5 99.675781 161.621094 C 99.554688 161.742188 99.554688 161.984375 99.675781 162.105469 Z M 64.316406 160.527344 L 64.316406 115.5 C 64.316406 115.289062 64.496094 115.109375 64.710938 115.109375 C 64.921875 115.109375 65.105469 115.289062 65.105469 115.5 L 65.105469 160.527344 C 65.558594 160.679688 65.890625 161.136719 65.890625 161.652344 C 65.890625 162.316406 65.347656 162.863281 64.679688 162.863281 C 64.011719 162.863281 63.46875 162.316406 63.46875 161.652344 C 63.527344 161.136719 63.863281 160.679688 64.316406 160.527344 Z M 101.160156 163.589844 C 101.28125 163.710938 101.523438 163.710938 101.644531 163.589844 C 101.765625 163.46875 101.765625 163.226562 101.644531 163.105469 C 101.523438 162.984375 101.28125 162.984375 101.160156 163.105469 C 101.039062 163.226562 101.039062 163.46875 101.160156 163.589844 Z M 102.644531 165.078125 C 102.765625 165.199219 103.007812 165.199219 103.128906 165.078125 C 103.25 164.957031 103.25 164.714844 103.128906 164.59375 C 103.007812 164.472656 102.765625 164.472656 102.644531 164.59375 C 102.492188 164.714844 102.492188 164.925781 102.644531 165.078125 Z M 76.132812 164.59375 C 76.132812 163.621094 75.34375 162.863281 74.40625 162.863281 C 73.464844 162.863281 72.679688 163.652344 72.679688 164.59375 C 72.679688 165.5625 73.464844 166.320312 74.40625 166.320312 C 75.34375 166.320312 76.132812 165.5625 76.132812 164.59375 Z M 104.128906 166.53125 C 104.25 166.652344 104.492188 166.652344 104.613281 166.53125 C 104.734375 166.410156 104.734375 166.167969 104.613281 166.046875 C 104.492188 165.925781 104.25 165.925781 104.128906 166.046875 C 103.976562 166.199219 103.976562 166.410156 104.128906 166.53125 Z M 74.042969 167.746094 C 74.042969 167.925781 74.195312 168.078125 74.375 168.078125 C 74.558594 168.078125 74.707031 167.925781 74.707031 167.746094 C 74.707031 167.5625 74.558594 167.410156 74.375 167.410156 C 74.222656 167.382812 74.042969 167.535156 74.042969 167.746094 Z M 104.21875 167.535156 C 104.097656 167.65625 104.097656 167.898438 104.21875 168.019531 C 104.339844 168.140625 104.582031 168.140625 104.703125 168.019531 C 104.824219 167.898438 104.824219 167.65625 104.703125 167.535156 C 104.554688 167.410156 104.339844 167.410156 104.21875 167.535156 Z M 102.734375 169.019531 C 102.613281 169.140625 102.613281 169.382812 102.734375 169.503906 C 102.855469 169.625 103.097656 169.625 103.21875 169.503906 C 103.339844 169.382812 103.339844 169.140625 103.21875 169.019531 C 103.097656 168.867188 102.855469 168.867188 102.734375 169.019531 Z M 74.042969 169.835938 C 74.042969 170.019531 74.195312 170.171875 74.375 170.171875 C 74.558594 170.171875 74.707031 170.019531 74.707031 169.835938 C 74.707031 169.65625 74.558594 169.503906 74.375 169.503906 C 74.222656 169.472656 74.042969 169.625 74.042969 169.835938 Z M 101.25 170.472656 C 101.128906 170.597656 101.128906 170.839844 101.25 170.960938 C 101.371094 171.082031 101.613281 171.082031 101.734375 170.960938 C 101.855469 170.839844 101.855469 170.597656 101.734375 170.472656 C 101.613281 170.351562 101.371094 170.351562 101.25 170.472656 Z M 99.765625 171.960938 C 99.644531 172.082031 99.644531 172.324219 99.765625 172.445312 C 99.886719 172.566406 100.128906 172.566406 100.25 172.445312 C 100.371094 172.324219 100.371094 172.082031 100.25 171.960938 C 100.128906 171.839844 99.917969 171.839844 99.765625 171.960938 Z M 98.3125 173.445312 C 98.191406 173.566406 98.191406 173.808594 98.3125 173.929688 C 98.433594 174.050781 98.675781 174.050781 98.796875 173.929688 C 98.917969 173.808594 98.917969 173.566406 98.796875 173.445312 C 98.644531 173.292969 98.433594 173.292969 98.3125 173.445312 Z M 74.042969 173.992188 C 74.042969 174.171875 74.195312 174.324219 74.375 174.324219 C 74.558594 174.324219 74.707031 174.171875 74.707031 173.992188 C 74.707031 173.808594 74.558594 173.660156 74.375 173.660156 C 74.222656 173.660156 74.042969 173.808594 74.042969 173.992188 Z M 107.550781 159.347656 L 107.550781 174.808594 L 115.277344 167.078125 Z M 96.828125 174.933594 C 96.707031 175.054688 96.707031 175.296875 96.828125 175.417969 C 96.949219 175.539062 97.191406 175.539062 97.3125 175.417969 C 97.433594 175.296875 97.433594 175.054688 97.3125 174.933594 C 97.191406 174.78125 96.949219 174.78125 96.828125 174.933594 Z M 74.042969 176.082031 C 74.042969 176.265625 74.195312 176.417969 74.375 176.417969 C 74.558594 176.417969 74.707031 176.265625 74.707031 176.082031 C 74.707031 175.902344 74.558594 175.75 74.375 175.75 C 74.222656 175.75 74.042969 175.902344 74.042969 176.082031 Z M 95.34375 176.386719 C 95.222656 176.507812 95.222656 176.75 95.34375 176.871094 C 95.464844 176.992188 95.707031 176.992188 95.828125 176.871094 C 95.949219 176.75 95.949219 176.507812 95.828125 176.386719 C 95.707031 176.265625 95.492188 176.265625 95.34375 176.386719 Z M 93.859375 177.871094 C 93.734375 177.996094 93.734375 178.238281 93.859375 178.359375 C 93.980469 178.480469 94.222656 178.480469 94.34375 178.359375 C 94.464844 178.238281 94.464844 177.996094 94.34375 177.871094 C 94.222656 177.75 94.007812 177.75 93.859375 177.871094 Z M 74.042969 178.175781 C 74.042969 178.359375 74.195312 178.507812 74.375 178.507812 C 74.558594 178.507812 74.707031 178.359375 74.707031 178.175781 C 74.707031 177.996094 74.558594 177.84375 74.375 177.84375 C 74.222656 177.84375 74.042969 177.996094 74.042969 178.175781 Z M 92.402344 179.359375 C 92.28125 179.480469 92.28125 179.722656 92.402344 179.84375 C 92.523438 179.964844 92.765625 179.964844 92.886719 179.84375 C 93.007812 179.722656 93.007812 179.480469 92.886719 179.359375 C 92.738281 179.207031 92.523438 179.207031 92.402344 179.359375 Z M 74.042969 180.269531 C 74.042969 180.449219 74.195312 180.601562 74.375 180.601562 C 74.558594 180.601562 74.707031 180.449219 74.707031 180.269531 C 74.707031 180.085938 74.558594 179.933594 74.375 179.933594 C 74.222656 179.933594 74.042969 180.085938 74.042969 180.269531 Z M 90.917969 180.84375 C 90.796875 180.964844 90.796875 181.207031 90.917969 181.328125 C 91.039062 181.449219 91.28125 181.449219 91.402344 181.328125 C 91.523438 181.207031 91.523438 180.964844 91.402344 180.84375 C 91.28125 180.691406 91.039062 180.691406 90.917969 180.84375 Z M 54.832031 141.367188 C 54.589844 141.273438 54.410156 141.03125 54.410156 140.757812 C 54.410156 140.425781 54.679688 140.121094 55.042969 140.121094 C 55.378906 140.121094 55.679688 140.394531 55.679688 140.757812 C 55.679688 141.03125 55.5 141.273438 55.257812 141.367188 L 55.257812 181.207031 C 55.5 181.300781 55.679688 181.542969 55.679688 181.816406 C 55.679688 182.148438 55.410156 182.453125 55.042969 182.453125 C 54.710938 182.453125 54.410156 182.179688 54.410156 181.816406 C 54.410156 181.542969 54.589844 181.300781 54.832031 181.207031 Z M 74.042969 182.359375 C 74.042969 182.542969 74.195312 182.695312 74.375 182.695312 C 74.558594 182.695312 74.707031 182.542969 74.707031 182.359375 C 74.707031 182.179688 74.558594 182.027344 74.375 182.027344 C 74.222656 182.027344 74.042969 182.179688 74.042969 182.359375 Z M 89.433594 182.300781 C 89.3125 182.421875 89.3125 182.664062 89.433594 182.785156 C 89.554688 182.90625 89.796875 182.90625 89.917969 182.785156 C 90.039062 182.664062 90.039062 182.421875 89.917969 182.300781 C 89.796875 182.179688 89.585938 182.179688 89.433594 182.300781 Z M 87.949219 183.785156 C 87.828125 183.90625 87.828125 184.148438 87.949219 184.269531 C 88.070312 184.390625 88.3125 184.390625 88.433594 184.269531 C 88.554688 184.148438 88.554688 183.90625 88.433594 183.785156 C 88.3125 183.664062 88.101562 183.664062 87.949219 183.785156 Z M 74.042969 184.453125 C 74.042969 184.632812 74.195312 184.785156 74.375 184.785156 C 74.558594 184.785156 74.707031 184.632812 74.707031 184.453125 C 74.707031 184.269531 74.558594 184.121094 74.375 184.121094 C 74.222656 184.121094 74.042969 184.269531 74.042969 184.453125 Z M 86.496094 185.269531 C 86.375 185.394531 86.375 185.636719 86.496094 185.757812 C 86.617188 185.878906 86.859375 185.878906 86.980469 185.757812 C 87.101562 185.636719 87.101562 185.394531 86.980469 185.269531 C 86.828125 185.121094 86.617188 185.121094 86.496094 185.269531 Z M 74.042969 186.542969 C 74.042969 186.726562 74.195312 186.878906 74.375 186.878906 C 74.558594 186.878906 74.707031 186.726562 74.707031 186.542969 C 74.707031 186.363281 74.558594 186.210938 74.375 186.210938 C 74.222656 186.210938 74.042969 186.363281 74.042969 186.542969 Z M 85.011719 186.757812 C 84.890625 186.878906 84.890625 187.121094 85.011719 187.242188 C 85.132812 187.363281 85.375 187.363281 85.496094 187.242188 C 85.617188 187.121094 85.617188 186.878906 85.496094 186.757812 C 85.375 186.605469 85.132812 186.605469 85.011719 186.757812 Z M 83.527344 188.210938 C 83.40625 188.332031 83.40625 188.578125 83.527344 188.699219 C 83.648438 188.820312 83.890625 188.820312 84.011719 188.699219 C 84.132812 188.578125 84.132812 188.332031 84.011719 188.210938 C 83.890625 188.089844 83.675781 188.089844 83.527344 188.210938 Z M 74.042969 188.636719 C 74.042969 188.820312 74.195312 188.96875 74.375 188.96875 C 74.558594 188.96875 74.707031 188.820312 74.707031 188.636719 C 74.707031 188.457031 74.558594 188.304688 74.375 188.304688 C 74.222656 188.304688 74.042969 188.457031 74.042969 188.636719 Z M 82.039062 189.699219 C 81.917969 189.820312 81.917969 190.0625 82.039062 190.183594 C 82.164062 190.304688 82.40625 190.304688 82.527344 190.183594 C 82.648438 190.0625 82.648438 189.820312 82.527344 189.699219 C 82.40625 189.578125 82.191406 189.578125 82.039062 189.699219 Z M 74.042969 190.730469 C 74.042969 190.910156 74.195312 191.0625 74.375 191.0625 C 74.558594 191.0625 74.707031 190.910156 74.707031 190.730469 C 74.707031 190.546875 74.558594 190.394531 74.375 190.394531 C 74.222656 190.367188 74.042969 190.546875 74.042969 190.730469 Z M 80.585938 191.183594 C 80.464844 191.304688 80.464844 191.546875 80.585938 191.667969 C 80.707031 191.789062 80.949219 191.789062 81.070312 191.667969 C 81.191406 191.546875 81.191406 191.304688 81.070312 191.183594 C 80.917969 191.03125 80.707031 191.03125 80.585938 191.183594 Z M 74.042969 192.820312 C 74.042969 193.003906 74.195312 193.15625 74.375 193.15625 C 74.558594 193.15625 74.707031 193.003906 74.707031 192.820312 C 74.707031 192.640625 74.558594 192.488281 74.375 192.488281 C 74.222656 192.457031 74.042969 192.640625 74.042969 192.820312 Z M 74.042969 194.914062 C 74.042969 195.09375 74.195312 195.246094 74.375 195.246094 C 74.558594 195.246094 74.707031 195.09375 74.707031 194.914062 C 74.707031 194.730469 74.558594 194.578125 74.375 194.578125 C 74.222656 194.550781 74.042969 194.703125 74.042969 194.914062 Z M 74.042969 197.003906 C 74.042969 197.1875 74.195312 197.339844 74.375 197.339844 C 74.558594 197.339844 74.707031 197.1875 74.707031 197.003906 C 74.707031 196.824219 74.558594 196.671875 74.375 196.671875 C 74.222656 196.640625 74.042969 196.792969 74.042969 197.003906 Z M 74.042969 199.097656 C 74.042969 199.28125 74.195312 199.429688 74.375 199.429688 C 74.558594 199.429688 74.707031 199.28125 74.707031 199.097656 C 74.707031 198.914062 74.558594 198.765625 74.375 198.765625 C 74.222656 198.734375 74.042969 198.886719 74.042969 199.097656 Z M 94.28125 201.3125 Z M 74.042969 201.191406 C 74.042969 201.371094 74.195312 201.523438 74.375 201.523438 C 74.558594 201.523438 74.707031 201.371094 74.707031 201.191406 C 74.707031 201.007812 74.558594 200.855469 74.375 200.855469 C 74.222656 200.828125 74.042969 200.976562 74.042969 201.191406 Z M 94.25 201.28125 C 94.25 201.402344 94.3125 201.492188 94.371094 201.554688 L 94.402344 201.585938 L 94.371094 201.554688 C 94.3125 201.492188 94.28125 201.402344 94.25 201.28125 C 94.25 201.433594 94.3125 201.523438 94.371094 201.585938 C 94.433594 201.644531 94.523438 201.675781 94.644531 201.675781 C 94.855469 201.675781 95.039062 201.492188 95.039062 201.28125 C 95.039062 200.917969 94.644531 201.675781 94.644531 201.675781 C 94.433594 200.886719 94.25 201.070312 94.25 201.28125 Z M 79.617188 193.125 L 79.617188 202.796875 L 106.765625 175.628906 L 106.765625 158.558594 L 79.617188 131.390625 L 79.617188 192.667969 C 79.707031 192.820312 79.707031 193.003906 79.617188 193.125 Z M 74.042969 203.28125 C 74.042969 203.464844 74.195312 203.617188 74.375 203.617188 C 74.558594 203.617188 74.707031 203.464844 74.707031 203.28125 C 74.707031 203.101562 74.558594 202.949219 74.375 202.949219 C 74.222656 202.917969 74.042969 203.070312 74.042969 203.28125 Z M 94.25 203.675781 C 94.25 203.890625 94.433594 204.070312 94.644531 204.070312 C 94.855469 204.070312 95.039062 203.890625 95.039062 203.675781 C 95.039062 203.464844 94.855469 203.28125 94.644531 203.28125 C 94.433594 203.28125 94.25 203.464844 94.25 203.675781 Z M 74.042969 205.375 C 74.042969 205.554688 74.195312 205.707031 74.375 205.707031 C 74.558594 205.707031 74.707031 205.554688 74.707031 205.375 C 74.707031 205.191406 74.558594 205.039062 74.375 205.039062 C 74.222656 205.011719 74.042969 205.164062 74.042969 205.375 Z M 94.25 206.101562 C 94.25 206.3125 94.433594 206.496094 94.644531 206.496094 C 94.855469 206.496094 95.039062 206.3125 95.039062 206.101562 C 95.039062 205.890625 94.855469 205.707031 94.644531 205.707031 C 94.433594 205.707031 94.25 205.859375 94.25 206.101562 Z M 74.042969 207.4375 C 74.042969 207.617188 74.195312 207.769531 74.375 207.769531 C 74.558594 207.769531 74.707031 207.617188 74.707031 207.4375 C 74.707031 207.253906 74.558594 207.101562 74.375 207.101562 C 74.222656 207.101562 74.042969 207.253906 74.042969 207.4375 Z M 94.25 208.496094 C 94.25 208.710938 94.433594 208.890625 94.644531 208.890625 C 94.855469 208.890625 95.039062 208.710938 95.039062 208.496094 C 95.039062 208.285156 94.855469 208.101562 94.644531 208.101562 C 94.433594 208.101562 94.25 208.285156 94.25 208.496094 Z M 74.042969 209.527344 C 74.042969 209.710938 74.195312 209.863281 74.375 209.863281 C 74.558594 209.863281 74.707031 209.710938 74.707031 209.527344 C 74.707031 209.347656 74.558594 209.195312 74.375 209.195312 C 74.222656 209.195312 74.042969 209.347656 74.042969 209.527344 Z M 94.25 210.894531 C 94.25 211.105469 94.433594 211.289062 94.644531 211.289062 C 94.855469 211.289062 95.039062 211.105469 95.039062 210.894531 C 95.039062 210.679688 94.855469 210.5 94.644531 210.5 C 94.433594 210.5 94.25 210.679688 94.25 210.894531 Z M 74.042969 211.621094 C 74.042969 211.800781 74.195312 211.953125 74.375 211.953125 C 74.558594 211.953125 74.707031 211.800781 74.707031 211.621094 C 74.707031 211.4375 74.558594 211.289062 74.375 211.289062 C 74.222656 211.289062 74.042969 211.4375 74.042969 211.621094 Z M 94.25 213.320312 C 94.25 213.53125 94.433594 213.710938 94.644531 213.710938 C 94.855469 213.710938 95.039062 213.53125 95.039062 213.320312 C 95.039062 213.105469 94.855469 212.925781 94.644531 212.925781 C 94.433594 212.894531 94.25 213.074219 94.25 213.320312 Z M 74.042969 213.710938 C 74.042969 213.894531 74.195312 214.046875 74.375 214.046875 C 74.558594 214.046875 74.707031 213.894531 74.707031 213.710938 C 74.707031 213.53125 74.558594 213.378906 74.375 213.378906 C 74.222656 213.378906 74.042969 213.53125 74.042969 213.710938 Z M 94.25 215.714844 C 94.25 215.925781 94.433594 216.109375 94.644531 216.109375 C 94.855469 216.109375 95.039062 215.925781 95.039062 215.714844 C 95.039062 215.5 94.855469 215.320312 94.644531 215.320312 C 94.433594 215.320312 94.25 215.5 94.25 215.714844 Z M 74.042969 215.804688 C 74.042969 215.988281 74.195312 216.136719 74.375 216.136719 C 74.558594 216.136719 74.707031 215.988281 74.707031 215.804688 C 74.707031 215.625 74.558594 215.472656 74.375 215.472656 C 74.222656 215.472656 74.042969 215.625 74.042969 215.804688 Z M 74.042969 217.898438 C 74.042969 218.078125 74.195312 218.230469 74.375 218.230469 C 74.558594 218.230469 74.707031 218.078125 74.707031 217.898438 C 74.707031 217.714844 74.558594 217.5625 74.375 217.5625 C 74.222656 217.5625 74.042969 217.714844 74.042969 217.898438 Z M 94.25 218.109375 C 94.25 218.320312 94.433594 218.503906 94.644531 218.503906 C 94.855469 218.503906 95.039062 218.320312 95.039062 218.109375 C 95.039062 217.898438 94.855469 217.714844 94.644531 217.714844 C 94.433594 217.714844 94.25 217.898438 94.25 218.109375 Z M 74.042969 219.988281 C 74.042969 220.171875 74.195312 220.324219 74.375 220.324219 C 74.558594 220.324219 74.707031 220.171875 74.707031 219.988281 C 74.707031 219.808594 74.558594 219.65625 74.375 219.65625 C 74.222656 219.65625 74.042969 219.808594 74.042969 219.988281 Z M 94.25 220.503906 C 94.25 220.71875 94.433594 220.898438 94.644531 220.898438 C 94.855469 220.898438 95.039062 220.71875 95.039062 220.503906 C 95.039062 220.292969 94.855469 220.109375 94.644531 220.109375 C 94.433594 220.109375 94.25 220.292969 94.25 220.503906 Z M 74.042969 222.082031 C 74.042969 222.261719 74.195312 222.414062 74.375 222.414062 C 74.558594 222.414062 74.707031 222.261719 74.707031 222.082031 C 74.707031 221.898438 74.558594 221.746094 74.375 221.746094 C 74.222656 221.746094 74.042969 221.898438 74.042969 222.082031 Z M 94.25 222.929688 C 94.25 223.144531 94.433594 223.324219 94.644531 223.324219 C 94.855469 223.324219 95.039062 223.144531 95.039062 222.929688 C 95.039062 222.71875 94.855469 222.535156 94.644531 222.535156 C 94.433594 222.507812 94.25 222.6875 94.25 222.929688 Z M 74.042969 224.171875 C 74.042969 224.355469 74.195312 224.507812 74.375 224.507812 C 74.558594 224.507812 74.707031 224.355469 74.707031 224.171875 C 74.707031 223.992188 74.558594 223.839844 74.375 223.839844 C 74.222656 223.808594 74.042969 223.992188 74.042969 224.171875 Z M 94.25 225.324219 C 94.25 225.539062 94.433594 225.71875 94.644531 225.71875 C 94.855469 225.71875 95.039062 225.539062 95.039062 225.324219 C 95.039062 225.113281 94.855469 224.933594 94.644531 224.933594 C 94.433594 224.933594 94.25 225.113281 94.25 225.324219 Z M 74.042969 226.265625 C 74.042969 226.449219 74.195312 226.597656 74.375 226.597656 C 74.558594 226.597656 74.707031 226.449219 74.707031 226.265625 C 74.707031 226.082031 74.558594 225.933594 74.375 225.933594 C 74.222656 225.902344 74.042969 226.082031 74.042969 226.265625 Z M 94.25 227.722656 C 94.25 227.933594 94.433594 228.117188 94.644531 228.117188 C 94.855469 228.117188 95.039062 227.933594 95.039062 227.722656 C 95.039062 227.507812 94.855469 227.328125 94.644531 227.328125 C 94.433594 227.328125 94.25 227.507812 94.25 227.722656 Z M 74.042969 228.359375 C 74.042969 228.539062 74.195312 228.691406 74.375 228.691406 C 74.558594 228.691406 74.707031 228.539062 74.707031 228.359375 C 74.707031 228.175781 74.558594 228.023438 74.375 228.023438 C 74.222656 227.996094 74.042969 228.175781 74.042969 228.359375 Z M 94.25 230.148438 C 94.25 230.359375 94.433594 230.542969 94.644531 230.542969 C 94.855469 230.542969 95.039062 230.359375 95.039062 230.148438 C 95.039062 229.933594 94.855469 229.753906 94.644531 229.753906 C 94.433594 229.722656 94.25 229.90625 94.25 230.148438 Z M 74.042969 230.449219 C 74.042969 230.632812 74.195312 230.785156 74.375 230.785156 C 74.558594 230.785156 74.707031 230.632812 74.707031 230.449219 C 74.707031 230.269531 74.558594 230.117188 74.375 230.117188 C 74.222656 230.085938 74.042969 230.238281 74.042969 230.449219 Z M 74.042969 232.542969 C 74.042969 232.722656 74.195312 232.875 74.375 232.875 C 74.558594 232.875 74.707031 232.722656 74.707031 232.542969 C 74.707031 232.359375 74.558594 232.207031 74.375 232.207031 C 74.222656 232.179688 74.042969 232.332031 74.042969 232.542969 Z M 94.25 232.542969 C 94.25 232.753906 94.433594 232.9375 94.644531 232.9375 C 94.855469 232.9375 95.039062 232.753906 95.039062 232.542969 C 95.039062 232.332031 94.855469 232.148438 94.644531 232.148438 C 94.433594 232.148438 94.25 232.300781 94.25 232.542969 Z M 72.617188 233.453125 L 47.136719 207.953125 L 72.617188 182.453125 Z M 74.042969 234.632812 C 74.042969 234.816406 74.195312 234.96875 74.375 234.96875 C 74.558594 234.96875 74.707031 234.816406 74.707031 234.632812 C 74.707031 234.453125 74.558594 234.300781 74.375 234.300781 C 74.222656 234.269531 74.042969 234.421875 74.042969 234.632812 Z M 94.25 234.9375 C 94.25 235.148438 94.433594 235.332031 94.644531 235.332031 C 94.855469 235.332031 95.039062 235.148438 95.039062 234.9375 C 95.039062 234.726562 94.855469 234.542969 94.644531 234.542969 C 94.433594 234.542969 94.25 234.726562 94.25 234.9375 Z M 74.042969 236.726562 C 74.042969 236.910156 74.195312 237.058594 74.375 237.058594 C 74.558594 237.058594 74.707031 236.910156 74.707031 236.726562 C 74.707031 236.542969 74.558594 236.394531 74.375 236.394531 C 74.222656 236.363281 74.042969 236.515625 74.042969 236.726562 Z M 94.25 237.332031 C 94.25 237.546875 94.433594 237.726562 94.644531 237.726562 C 94.855469 237.726562 95.039062 237.546875 95.039062 237.332031 C 95.039062 237.121094 94.855469 236.9375 94.644531 236.9375 C 94.433594 236.9375 94.25 237.121094 94.25 237.332031 Z M 74.042969 238.820312 C 74.042969 239 74.195312 239.152344 74.375 239.152344 C 74.558594 239.152344 74.707031 239 74.707031 238.820312 C 74.707031 238.636719 74.558594 238.484375 74.375 238.484375 C 74.222656 238.457031 74.042969 238.605469 74.042969 238.820312 Z M 94.25 239.757812 C 94.25 239.972656 94.433594 240.152344 94.644531 240.152344 C 94.855469 240.152344 95.039062 239.972656 95.039062 239.757812 C 95.039062 239.546875 94.855469 239.363281 94.644531 239.363281 C 94.433594 239.335938 94.25 239.515625 94.25 239.757812 Z M 74.042969 240.878906 C 74.042969 241.0625 74.195312 241.214844 74.375 241.214844 C 74.558594 241.214844 74.707031 241.0625 74.707031 240.878906 C 74.707031 240.699219 74.558594 240.546875 74.375 240.546875 C 74.222656 240.546875 74.042969 240.699219 74.042969 240.878906 Z M 94.25 242.15625 C 94.25 242.367188 94.433594 242.546875 94.644531 242.546875 C 94.855469 242.546875 95.039062 242.367188 95.039062 242.15625 C 95.039062 241.941406 94.855469 241.761719 94.644531 241.761719 C 94.433594 241.761719 94.25 241.941406 94.25 242.15625 Z M 74.042969 242.972656 C 74.042969 243.15625 74.195312 243.304688 74.375 243.304688 C 74.558594 243.304688 74.707031 243.15625 74.707031 242.972656 C 74.707031 242.792969 74.558594 242.640625 74.375 242.640625 C 74.222656 242.640625 74.042969 242.792969 74.042969 242.972656 Z M 94.25 244.550781 C 94.25 244.761719 94.433594 244.945312 94.644531 244.945312 C 94.855469 244.945312 95.039062 244.761719 95.039062 244.550781 C 95.039062 244.335938 94.855469 244.15625 94.644531 244.15625 C 94.433594 244.15625 94.25 244.335938 94.25 244.550781 Z M 74.195312 244.792969 C 74.101562 244.851562 74.042969 244.972656 74.042969 245.066406 C 74.042969 245.246094 74.195312 245.398438 74.375 245.398438 C 74.558594 245.398438 74.707031 245.246094 74.707031 245.066406 C 74.707031 244.945312 74.648438 244.851562 74.558594 244.792969 C 74.585938 244.792969 74.585938 244.761719 74.617188 244.761719 C 74.738281 244.640625 74.738281 244.398438 74.617188 244.277344 L 38.351562 207.953125 L 74.132812 172.140625 C 74.195312 172.203125 74.285156 172.261719 74.40625 172.261719 C 74.585938 172.261719 74.738281 172.113281 74.738281 171.929688 C 74.738281 171.839844 74.679688 171.71875 74.617188 171.65625 L 74.648438 171.625 C 74.769531 171.503906 74.769531 171.261719 74.648438 171.140625 C 74.527344 171.019531 74.285156 171.019531 74.164062 171.140625 L 37.621094 207.710938 C 37.5 207.832031 37.5 208.074219 37.621094 208.195312 L 74.164062 244.761719 C 74.164062 244.761719 74.195312 244.792969 74.195312 244.792969 Z M 74.042969 247.15625 C 74.042969 247.339844 74.195312 247.492188 74.375 247.492188 C 74.558594 247.492188 74.707031 247.339844 74.707031 247.15625 C 74.707031 246.976562 74.558594 246.824219 74.375 246.824219 C 74.222656 246.824219 74.042969 246.976562 74.042969 247.15625 Z M 95.855469 247.460938 C 95.855469 248.128906 95.3125 248.671875 94.644531 248.671875 C 93.980469 248.671875 93.433594 248.128906 93.433594 247.460938 C 93.433594 246.792969 93.980469 246.246094 94.644531 246.246094 C 95.34375 246.246094 95.855469 246.792969 95.855469 247.460938 Z M 74.222656 249.550781 C 74.101562 249.492188 74.042969 249.371094 74.042969 249.25 C 74.042969 249.066406 74.195312 248.914062 74.375 248.914062 C 74.558594 248.914062 74.707031 249.066406 74.707031 249.25 C 74.707031 249.371094 74.648438 249.492188 74.527344 249.550781 C 75.40625 249.644531 76.101562 250.371094 76.101562 251.28125 C 76.101562 252.25 75.316406 253.007812 74.375 253.007812 C 73.4375 253.007812 72.648438 252.222656 72.648438 251.28125 C 72.679688 250.402344 73.34375 249.644531 74.222656 249.550781 Z M 78.921875 117.625 C 77.679688 117.441406 76.707031 116.382812 76.707031 115.078125 C 76.707031 113.652344 77.859375 112.5 79.285156 112.5 C 80.707031 112.5 81.859375 113.652344 81.859375 115.078125 C 81.859375 116.382812 80.890625 117.441406 79.648438 117.625 L 79.648438 130.390625 L 106.796875 157.558594 L 106.796875 148.671875 C 106.339844 148.523438 106.007812 148.066406 106.007812 147.550781 C 106.007812 146.882812 106.550781 146.339844 107.21875 146.339844 C 107.886719 146.339844 108.429688 146.882812 108.429688 147.550781 C 108.429688 148.066406 108.097656 148.523438 107.644531 148.671875 L 107.644531 158.347656 L 116.128906 166.835938 C 116.25 166.957031 116.25 167.199219 116.128906 167.320312 L 107.644531 175.8125 L 107.644531 228.691406 C 107.644531 228.902344 107.460938 229.085938 107.25 229.085938 C 107.039062 229.085938 106.855469 228.902344 106.855469 228.691406 L 106.855469 176.597656 L 79.707031 203.765625 L 79.707031 258.347656 C 80.707031 258.496094 81.433594 259.375 81.433594 260.40625 C 81.433594 261.558594 80.496094 262.5 79.34375 262.5 C 78.191406 262.5 77.253906 261.558594 77.253906 260.40625 C 77.253906 259.375 78.011719 258.496094 78.980469 258.347656 L 78.980469 117.625 Z M 78.921875 117.625 " fill-opacity="1" fill-rule="evenodd"/></g></svg>