<svg xmlns="http://www.w3.org/2000/svg" xmlns:xlink="http://www.w3.org/1999/xlink" width="1920" zoomAndPan="magnify" viewBox="0 0 1440 809.999993" height="1080" preserveAspectRatio="xMidYMid meet" version="1.0"><defs><g/><clipPath id="89349aea2e"><path d="M 34.078125 47.371094 L 412.417969 47.371094 L 412.417969 768.015625 L 34.078125 768.015625 Z M 34.078125 47.371094 " clip-rule="nonzero"/></clipPath></defs><g fill="#ffffff" fill-opacity="1"><g transform="translate(434.79138, 524.798337)"><g><path d="M 155.238281 -187.597656 L 124.988281 -187.597656 C 123.34375 -187.597656 122.171875 -186.425781 122.171875 -185.488281 L 122.171875 -63.3125 L 35.644531 -186.894531 C 35.410156 -187.363281 34.003906 -187.597656 33.53125 -187.597656 L 2.34375 -187.597656 C 1.171875 -187.597656 0 -186.425781 0 -185.488281 L 0 -45.023438 L 35.878906 -45.023438 L 35.878906 -124.285156 L 122.171875 -0.703125 C 122.40625 -0.234375 123.8125 0 124.285156 0 L 155.238281 0 C 156.878906 0 157.816406 -1.171875 157.816406 -2.109375 L 157.816406 -185.488281 C 157.816406 -186.425781 156.878906 -187.597656 155.238281 -187.597656 Z M 155.238281 -187.597656 "/></g></g></g><g fill="#ffffff" fill-opacity="1"><g transform="translate(627.779806, 524.798337)"><g><path d="M 89.109375 -34.941406 L 35.878906 -34.941406 L 35.878906 -77.148438 L 109.511719 -77.148438 C 110.917969 -77.148438 112.089844 -78.320312 112.089844 -79.261719 L 112.089844 -109.042969 C 112.089844 -110.214844 110.917969 -111.152344 109.511719 -111.152344 L 35.878906 -111.152344 L 35.878906 -153.59375 L 89.109375 -153.59375 L 89.109375 -187.597656 L 2.578125 -187.597656 C 1.171875 -187.597656 0 -186.425781 0 -185.488281 L 0 -2.109375 C 0 -1.171875 1.171875 0 2.578125 0 L 89.109375 0 Z M 89.109375 -34.941406 "/></g></g></g><g fill="#ffffff" fill-opacity="1"><g transform="translate(772.697772, 524.798337)"><g><path d="M 101.300781 -34.941406 L 0 -34.941406 L 0 -2.109375 C 0 -1.171875 1.171875 0 2.578125 0 L 101.300781 0 C 102.945312 0 103.882812 -1.171875 103.882812 -2.109375 L 103.882812 -32.59375 C 103.882812 -33.765625 102.945312 -34.941406 101.300781 -34.941406 Z M 35.878906 -70.816406 L 35.878906 -185.488281 C 35.878906 -186.425781 34.941406 -187.597656 33.53125 -187.597656 L 2.578125 -187.597656 C 1.171875 -187.597656 0 -186.425781 0 -185.488281 L 0 -70.816406 Z M 35.878906 -70.816406 "/></g></g></g><g fill="#ffffff" fill-opacity="1"><g transform="translate(909.17411, 524.798337)"><g><path d="M 138.351562 -187.597656 L 107.867188 -187.597656 C 106.226562 -187.597656 105.289062 -186.425781 105.289062 -185.488281 L 105.289062 -62.609375 C 105.289062 -43.617188 87.9375 -34.472656 70.347656 -34.472656 C 52.996094 -34.472656 37.519531 -44.320312 35.410156 -62.84375 L 35.410156 -153.59375 L 0 -153.59375 L 0 -62.609375 C 0 -23.917969 31.65625 0 70.347656 0 C 110.214844 0 140.699219 -22.980469 140.699219 -62.609375 L 140.699219 -185.488281 C 140.699219 -186.425781 139.527344 -187.597656 138.351562 -187.597656 Z M 138.351562 -187.597656 "/></g></g></g><g fill="#ffffff" fill-opacity="1"><g transform="translate(1084.106796, 524.798337)"><g><path d="M 86.058594 -104.117188 C 72.695312 -110.449219 59.5625 -110.449219 58.390625 -110.449219 C 46.429688 -110.449219 34.941406 -117.484375 34.941406 -131.082031 C 34.941406 -146.089844 45.492188 -153.828125 58.390625 -153.828125 C 70.582031 -153.828125 80.902344 -147.5 81.371094 -134.132812 C 81.371094 -133.429688 82.542969 -132.257812 83.949219 -132.257812 L 113.261719 -132.257812 C 114.902344 -132.257812 116.074219 -133.429688 115.839844 -134.132812 C 115.371094 -166.023438 90.515625 -187.597656 58.390625 -187.597656 C 28.375 -187.597656 0 -166.257812 0 -131.082031 C 0 -109.277344 11.019531 -92.625 30.484375 -83.714844 C 44.085938 -77.382812 56.75 -77.382812 58.390625 -77.382812 C 68.941406 -76.914062 81.839844 -68.472656 81.839844 -54.636719 C 81.839844 -42.210938 70.816406 -33.765625 58.390625 -33.765625 C 58.390625 -33.765625 58.390625 -33.765625 58.15625 -33.765625 L 58.15625 0 C 58.390625 0 58.390625 0 58.390625 0 C 88.40625 0 116.546875 -19.464844 116.546875 -54.636719 C 116.546875 -76.679688 105.757812 -94.972656 86.058594 -104.117188 Z M 86.058594 -104.117188 "/></g></g></g><g fill="#ffffff" fill-opacity="1"><g transform="translate(1233.714628, 524.798337)"><g><path d="M 147.265625 -2.8125 L 75.976562 -186.191406 C 75.273438 -188.066406 71.992188 -188.066406 71.285156 -186.191406 L 0.234375 -2.8125 C -0.46875 -1.40625 0.46875 0 2.578125 0 L 34.707031 0 C 35.644531 0 36.816406 -0.46875 37.050781 -1.40625 L 73.632812 -105.992188 L 110.683594 -1.40625 C 110.917969 -0.46875 112.089844 0 112.792969 0 L 145.152344 0 C 146.796875 0 147.96875 -1.40625 147.265625 -2.8125 Z M 147.265625 -2.8125 "/></g></g></g><g fill="#f1ca2e" fill-opacity="1"><g transform="translate(677.401339, 606.407072)"><g><path d="M 15.328125 -39.421875 L 1.328125 -39.421875 L 1.328125 -46.390625 L 37.765625 -46.390625 L 37.765625 -39.421875 L 23.765625 -39.421875 L 23.765625 0 L 15.328125 0 Z M 15.328125 -39.421875 "/></g></g></g><g fill="#f1ca2e" fill-opacity="1"><g transform="translate(733.46035, 606.407072)"><g><path d="M 3.984375 -46.390625 L 35.375 -46.390625 L 35.375 -39.421875 L 12.40625 -39.421875 L 12.40625 -26.6875 L 29.46875 -26.6875 L 29.46875 -19.71875 L 12.40625 -19.71875 L 12.40625 -6.96875 L 35.375 -6.96875 L 35.375 0 L 3.984375 0 Z M 3.984375 -46.390625 "/></g></g></g><g fill="#f1ca2e" fill-opacity="1"><g transform="translate(787.795057, 606.407072)"><g><path d="M 27.484375 1 C 22.609375 1 18.289062 0.015625 14.53125 -1.953125 C 10.769531 -3.921875 7.847656 -6.726562 5.765625 -10.375 C 3.691406 -14.03125 2.65625 -18.296875 2.65625 -23.171875 C 2.65625 -28.035156 3.691406 -32.289062 5.765625 -35.9375 C 7.847656 -39.59375 10.769531 -42.414062 14.53125 -44.40625 C 18.289062 -46.394531 22.609375 -47.390625 27.484375 -47.390625 C 33.898438 -47.390625 39.253906 -45.863281 43.546875 -42.8125 L 43.546875 -34.78125 C 39.691406 -38.050781 34.578125 -39.6875 28.203125 -39.6875 C 24.796875 -39.6875 21.8125 -39.007812 19.25 -37.65625 C 16.6875 -36.3125 14.695312 -34.398438 13.28125 -31.921875 C 11.863281 -29.441406 11.15625 -26.523438 11.15625 -23.171875 C 11.15625 -19.804688 11.875 -16.882812 13.3125 -14.40625 C 14.75 -11.925781 16.75 -10.007812 19.3125 -8.65625 C 21.882812 -7.3125 24.847656 -6.640625 28.203125 -6.640625 C 31.484375 -6.640625 34.40625 -7.046875 36.96875 -7.859375 C 39.539062 -8.679688 41.910156 -10 44.078125 -11.8125 L 44.078125 -3.78125 C 40.003906 -0.59375 34.472656 1 27.484375 1 Z M 27.484375 1 "/></g></g></g><g fill="#f1ca2e" fill-opacity="1"><g transform="translate(851.481028, 606.407072)"><g><path d="M 3.984375 -46.390625 L 12.40625 -46.390625 L 12.40625 -27.140625 L 34.71875 -27.140625 L 34.71875 -46.390625 L 43.078125 -46.390625 L 43.078125 0 L 34.71875 0 L 34.71875 -20.171875 L 12.40625 -20.171875 L 12.40625 0 L 3.984375 0 Z M 3.984375 -46.390625 "/></g></g></g><g fill="#f1ca2e" fill-opacity="1"><g transform="translate(915.498595, 606.407072)"><g/></g></g><g fill="#f1ca2e" fill-opacity="1"><g transform="translate(956.370079, 606.407072)"><g><path d="M 19.375 1 C 14.425781 1 10.398438 -0.101562 7.296875 -2.3125 C 4.203125 -4.53125 2.65625 -7.628906 2.65625 -11.609375 C 2.65625 -14.578125 3.460938 -17.085938 5.078125 -19.140625 C 6.691406 -21.203125 9.289062 -23.296875 12.875 -25.421875 C 10.789062 -27.367188 9.226562 -29.179688 8.1875 -30.859375 C 7.15625 -32.546875 6.640625 -34.40625 6.640625 -36.4375 C 6.640625 -38.5625 7.179688 -40.453125 8.265625 -42.109375 C 9.347656 -43.773438 10.863281 -45.070312 12.8125 -46 C 14.757812 -46.925781 17.035156 -47.390625 19.640625 -47.390625 C 22.171875 -47.390625 24.394531 -46.910156 26.3125 -45.953125 C 28.238281 -45.003906 29.734375 -43.703125 30.796875 -42.046875 C 31.859375 -40.390625 32.390625 -38.519531 32.390625 -36.4375 C 32.390625 -33.914062 31.757812 -31.734375 30.5 -29.890625 C 29.238281 -28.054688 27.125 -26.191406 24.15625 -24.296875 L 35.515625 -13.609375 C 36.703125 -15.640625 37.296875 -19.113281 37.296875 -24.03125 L 44.140625 -24.03125 C 44.140625 -20.570312 43.882812 -17.691406 43.375 -15.390625 C 42.863281 -13.097656 41.96875 -10.863281 40.6875 -8.6875 L 49.90625 0 L 40.09375 0 L 35.78125 -3.984375 C 33.738281 -2.253906 31.359375 -0.988281 28.640625 -0.1875 C 25.921875 0.601562 22.832031 1 19.375 1 Z M 19.109375 -28.140625 C 21.367188 -29.472656 23.003906 -30.734375 24.015625 -31.921875 C 25.035156 -33.117188 25.546875 -34.445312 25.546875 -35.90625 C 25.546875 -37.59375 25.015625 -38.960938 23.953125 -40.015625 C 22.898438 -41.078125 21.460938 -41.609375 19.640625 -41.609375 C 17.867188 -41.609375 16.453125 -41.078125 15.390625 -40.015625 C 14.335938 -38.960938 13.8125 -37.59375 13.8125 -35.90625 C 13.8125 -34.664062 14.21875 -33.503906 15.03125 -32.421875 C 15.851562 -31.335938 17.210938 -29.910156 19.109375 -28.140625 Z M 19.453125 -4.578125 C 21.835938 -4.578125 24.023438 -4.929688 26.015625 -5.640625 C 28.003906 -6.347656 29.664062 -7.320312 31 -8.5625 L 18.25 -20.90625 C 15.59375 -19.664062 13.632812 -18.289062 12.375 -16.78125 C 11.113281 -15.28125 10.484375 -13.554688 10.484375 -11.609375 C 10.484375 -9.316406 11.359375 -7.570312 13.109375 -6.375 C 14.859375 -5.175781 16.972656 -4.578125 19.453125 -4.578125 Z M 19.453125 -4.578125 "/></g></g></g><g fill="#f1ca2e" fill-opacity="1"><g transform="translate(1025.229129, 606.407072)"><g/></g></g><g fill="#f1ca2e" fill-opacity="1"><g transform="translate(1066.100613, 606.407072)"><g><path d="M 3.984375 -46.390625 L 19.515625 -46.390625 C 24.554688 -46.390625 28.9375 -45.460938 32.65625 -43.609375 C 36.375 -41.753906 39.226562 -39.097656 41.21875 -35.640625 C 43.207031 -32.191406 44.203125 -28.125 44.203125 -23.4375 C 44.203125 -15.726562 41.96875 -9.894531 37.5 -5.9375 C 33.03125 -1.976562 26.789062 0 18.78125 0 L 3.984375 0 Z M 18.921875 -6.96875 C 24.316406 -6.96875 28.460938 -8.414062 31.359375 -11.3125 C 34.253906 -14.21875 35.703125 -18.257812 35.703125 -23.4375 C 35.703125 -26.570312 35.0625 -29.34375 33.78125 -31.75 C 32.5 -34.164062 30.660156 -36.046875 28.265625 -37.390625 C 25.878906 -38.742188 23.050781 -39.421875 19.78125 -39.421875 L 12.40625 -39.421875 L 12.40625 -6.96875 Z M 18.921875 -6.96875 "/></g></g></g><g fill="#f1ca2e" fill-opacity="1"><g transform="translate(1129.919258, 606.407072)"><g><path d="M 3.984375 -46.390625 L 35.375 -46.390625 L 35.375 -39.421875 L 12.40625 -39.421875 L 12.40625 -26.6875 L 29.46875 -26.6875 L 29.46875 -19.71875 L 12.40625 -19.71875 L 12.40625 -6.96875 L 35.375 -6.96875 L 35.375 0 L 3.984375 0 Z M 3.984375 -46.390625 "/></g></g></g><g fill="#f1ca2e" fill-opacity="1"><g transform="translate(1184.253989, 606.407072)"><g><path d="M 17.390625 1 C 14.648438 1 11.941406 0.742188 9.265625 0.234375 C 6.585938 -0.273438 4.382812 -0.953125 2.65625 -1.796875 L 2.65625 -9.03125 C 4.863281 -7.96875 7.1875 -7.171875 9.625 -6.640625 C 12.0625 -6.109375 14.453125 -5.84375 16.796875 -5.84375 C 19.753906 -5.84375 22.007812 -6.394531 23.5625 -7.5 C 25.113281 -8.601562 25.890625 -10.128906 25.890625 -12.078125 C 25.890625 -13.453125 25.535156 -14.59375 24.828125 -15.5 C 24.117188 -16.40625 23.078125 -17.203125 21.703125 -17.890625 C 20.328125 -18.578125 18.226562 -19.472656 15.40625 -20.578125 C 11.0625 -22.347656 7.914062 -24.316406 5.96875 -26.484375 C 4.019531 -28.648438 3.046875 -31.347656 3.046875 -34.578125 C 3.046875 -37.097656 3.734375 -39.332031 5.109375 -41.28125 C 6.484375 -43.226562 8.410156 -44.734375 10.890625 -45.796875 C 13.367188 -46.859375 16.222656 -47.390625 19.453125 -47.390625 C 22.109375 -47.390625 24.460938 -47.175781 26.515625 -46.75 C 28.578125 -46.332031 30.601562 -45.679688 32.59375 -44.796875 L 32.59375 -37.765625 C 28.738281 -39.628906 24.84375 -40.5625 20.90625 -40.5625 C 18.070312 -40.5625 15.878906 -40.039062 14.328125 -39 C 12.785156 -37.957031 12.015625 -36.484375 12.015625 -34.578125 C 12.015625 -33.210938 12.367188 -32.097656 13.078125 -31.234375 C 13.785156 -30.367188 14.722656 -29.632812 15.890625 -29.03125 C 17.066406 -28.4375 19.179688 -27.5 22.234375 -26.21875 C 25.328125 -24.9375 27.769531 -23.675781 29.5625 -22.4375 C 31.363281 -21.195312 32.71875 -19.742188 33.625 -18.078125 C 34.53125 -16.421875 34.984375 -14.398438 34.984375 -12.015625 C 34.984375 -7.898438 33.5 -4.703125 30.53125 -2.421875 C 27.5625 -0.140625 23.179688 1 17.390625 1 Z M 17.390625 1 "/></g></g></g><g fill="#f1ca2e" fill-opacity="1"><g transform="translate(1238.854003, 606.407072)"><g><path d="M 3.984375 -46.390625 L 12.40625 -46.390625 L 12.40625 0 L 3.984375 0 Z M 3.984375 -46.390625 "/></g></g></g><g fill="#f1ca2e" fill-opacity="1"><g transform="translate(1272.231212, 606.407072)"><g><path d="M 27.484375 1 C 22.609375 1 18.289062 0.015625 14.53125 -1.953125 C 10.769531 -3.921875 7.847656 -6.726562 5.765625 -10.375 C 3.691406 -14.03125 2.65625 -18.296875 2.65625 -23.171875 C 2.65625 -28.035156 3.691406 -32.289062 5.765625 -35.9375 C 7.847656 -39.59375 10.769531 -42.414062 14.53125 -44.40625 C 18.289062 -46.394531 22.609375 -47.390625 27.484375 -47.390625 C 30.796875 -47.390625 33.757812 -47.035156 36.375 -46.328125 C 38.988281 -45.617188 41.351562 -44.488281 43.46875 -42.9375 L 43.46875 -34.90625 C 41.53125 -36.59375 39.296875 -37.8125 36.765625 -38.5625 C 34.242188 -39.3125 31.390625 -39.6875 28.203125 -39.6875 C 25.023438 -39.6875 22.140625 -39.007812 19.546875 -37.65625 C 16.960938 -36.3125 14.914062 -34.390625 13.40625 -31.890625 C 11.90625 -29.390625 11.15625 -26.484375 11.15625 -23.171875 C 11.15625 -19.804688 11.863281 -16.875 13.28125 -14.375 C 14.695312 -11.875 16.664062 -9.945312 19.1875 -8.59375 C 21.707031 -7.25 24.582031 -6.578125 27.8125 -6.578125 C 31.21875 -6.578125 34.023438 -7.148438 36.234375 -8.296875 L 36.234375 -18.71875 L 28.40625 -18.71875 L 28.40625 -25.421875 L 44.671875 -25.421875 L 44.671875 -3.78125 C 40.554688 -0.59375 34.828125 1 27.484375 1 Z M 27.484375 1 "/></g></g></g><g fill="#f1ca2e" fill-opacity="1"><g transform="translate(1336.514033, 606.407072)"><g><path d="M 3.984375 -46.390625 L 11.953125 -46.390625 L 33.65625 -14.078125 L 33.65625 -46.390625 L 42.078125 -46.390625 L 42.078125 0 L 34.109375 0 L 12.40625 -32.390625 L 12.40625 0 L 3.984375 0 Z M 3.984375 -46.390625 "/></g></g></g><g clip-path="url(#89349aea2e)"><path fill="#f1ca2e" d="M 236.421875 68.496094 C 240.496094 67.765625 243.699219 64.125 243.699219 59.753906 C 243.699219 54.800781 239.625 50.722656 234.675781 50.722656 C 229.726562 50.722656 225.648438 54.800781 225.648438 59.753906 C 225.648438 64.125 228.851562 67.765625 232.929688 68.496094 L 232.929688 59.753906 C 232.929688 58.882812 233.65625 58.152344 234.53125 58.152344 C 235.402344 58.152344 236.128906 58.882812 236.128906 59.753906 L 236.128906 68.496094 Z M 240.644531 193.480469 C 241.226562 194.066406 242.390625 194.066406 242.972656 193.480469 C 243.554688 192.898438 243.554688 191.734375 242.972656 191.152344 C 242.390625 190.570312 241.226562 190.570312 240.644531 191.152344 C 239.914062 191.734375 239.914062 192.753906 240.644531 193.480469 Z M 247.628906 200.476562 C 248.210938 201.058594 249.378906 201.058594 249.960938 200.476562 C 250.542969 199.890625 250.542969 198.726562 249.960938 198.144531 C 249.378906 197.5625 248.210938 197.5625 247.628906 198.144531 C 247.046875 198.871094 247.046875 199.890625 247.628906 200.476562 Z M 254.761719 207.613281 C 255.34375 208.195312 256.507812 208.195312 257.09375 207.613281 C 257.675781 207.03125 257.675781 205.863281 257.09375 205.28125 C 256.507812 204.699219 255.34375 204.699219 254.761719 205.28125 C 254.179688 205.863281 254.179688 207.03125 254.761719 207.613281 Z M 261.894531 214.75 C 262.476562 215.332031 263.640625 215.332031 264.222656 214.75 C 264.808594 214.167969 264.808594 213.003906 264.222656 212.417969 C 263.640625 211.835938 262.476562 211.835938 261.894531 212.417969 C 261.167969 213.003906 261.167969 214.023438 261.894531 214.75 Z M 269.027344 221.886719 C 269.609375 222.472656 270.773438 222.472656 271.355469 221.886719 C 271.941406 221.304688 271.941406 220.140625 271.355469 219.558594 C 270.773438 218.976562 269.609375 218.976562 269.027344 219.558594 C 268.300781 220.140625 268.300781 221.160156 269.027344 221.886719 Z M 276.015625 228.878906 C 276.597656 229.464844 277.761719 229.464844 278.34375 228.878906 C 278.925781 228.296875 278.925781 227.132812 278.34375 226.550781 C 277.761719 225.96875 276.597656 225.96875 276.015625 226.550781 C 275.433594 227.277344 275.433594 228.296875 276.015625 228.878906 Z M 283.148438 236.019531 C 283.730469 236.601562 284.894531 236.601562 285.476562 236.019531 C 286.058594 235.4375 286.058594 234.269531 285.476562 233.6875 C 284.894531 233.105469 283.730469 233.105469 283.148438 233.6875 C 282.566406 234.269531 282.566406 235.4375 283.148438 236.019531 Z M 290.28125 243.15625 C 290.863281 243.738281 292.027344 243.738281 292.609375 243.15625 C 293.191406 242.574219 293.191406 241.410156 292.609375 240.824219 C 292.027344 240.242188 290.863281 240.242188 290.28125 240.824219 C 289.554688 241.410156 289.554688 242.429688 290.28125 243.15625 Z M 297.414062 250.292969 C 297.996094 250.878906 299.160156 250.878906 299.742188 250.292969 C 300.324219 249.710938 300.324219 248.546875 299.742188 247.964844 C 299.160156 247.382812 297.996094 247.382812 297.414062 247.964844 C 296.683594 248.546875 296.683594 249.566406 297.414062 250.292969 Z M 304.398438 257.285156 C 304.984375 257.871094 306.148438 257.871094 306.730469 257.285156 C 307.3125 256.703125 307.3125 255.539062 306.730469 254.957031 C 306.148438 254.375 304.984375 254.375 304.398438 254.957031 C 303.816406 255.539062 303.816406 256.703125 304.398438 257.285156 Z M 311.53125 264.425781 C 312.113281 265.007812 313.28125 265.007812 313.863281 264.425781 C 314.445312 263.84375 314.445312 262.675781 313.863281 262.09375 C 313.28125 261.511719 312.113281 261.511719 311.53125 262.09375 C 310.949219 262.675781 310.949219 263.84375 311.53125 264.425781 Z M 318.664062 271.5625 C 319.246094 272.144531 320.414062 272.144531 320.996094 271.5625 C 321.578125 270.980469 321.578125 269.816406 320.996094 269.230469 C 320.414062 268.648438 319.246094 268.648438 318.664062 269.230469 C 317.9375 269.816406 317.9375 270.835938 318.664062 271.5625 Z M 325.796875 278.699219 C 326.378906 279.285156 327.546875 279.285156 328.128906 278.699219 C 328.710938 278.117188 328.710938 276.953125 328.128906 276.371094 C 327.546875 275.789062 326.378906 275.789062 325.796875 276.371094 C 325.070312 276.953125 325.070312 277.972656 325.796875 278.699219 Z M 332.785156 285.691406 C 333.367188 286.277344 334.53125 286.277344 335.113281 285.691406 C 335.695312 285.109375 335.695312 283.945312 335.113281 283.363281 C 334.53125 282.78125 333.367188 282.78125 332.785156 283.363281 C 332.203125 283.945312 332.203125 285.109375 332.785156 285.691406 Z M 162.910156 278.117188 L 162.910156 61.792969 C 162.910156 60.773438 163.785156 59.902344 164.804688 59.902344 C 165.824219 59.902344 166.695312 60.773438 166.695312 61.792969 L 166.695312 278.117188 C 168.878906 278.847656 170.480469 281.03125 170.480469 283.507812 C 170.480469 286.710938 167.859375 289.335938 164.660156 289.335938 C 161.457031 289.335938 158.835938 286.710938 158.835938 283.507812 C 159.128906 281.03125 160.726562 278.847656 162.910156 278.117188 Z M 339.917969 292.832031 C 340.5 293.414062 341.664062 293.414062 342.246094 292.832031 C 342.828125 292.25 342.828125 291.082031 342.246094 290.5 C 341.664062 289.917969 340.5 289.917969 339.917969 290.5 C 339.335938 291.082031 339.335938 292.25 339.917969 292.832031 Z M 347.050781 299.96875 C 347.632812 300.550781 348.796875 300.550781 349.378906 299.96875 C 349.960938 299.386719 349.960938 298.222656 349.378906 297.636719 C 348.796875 297.054688 347.632812 297.054688 347.050781 297.636719 C 346.324219 298.222656 346.324219 299.242188 347.050781 299.96875 Z M 219.683594 297.636719 C 219.683594 292.976562 215.898438 289.335938 211.382812 289.335938 C 206.871094 289.335938 203.085938 293.121094 203.085938 297.636719 C 203.085938 302.300781 206.871094 305.941406 211.382812 305.941406 C 215.898438 305.941406 219.683594 302.300781 219.683594 297.636719 Z M 354.183594 306.960938 C 354.765625 307.542969 355.929688 307.542969 356.511719 306.960938 C 357.09375 306.378906 357.09375 305.214844 356.511719 304.628906 C 355.929688 304.046875 354.765625 304.046875 354.183594 304.628906 C 353.457031 305.359375 353.457031 306.378906 354.183594 306.960938 Z M 209.636719 312.789062 C 209.636719 313.664062 210.367188 314.390625 211.238281 314.390625 C 212.113281 314.390625 212.839844 313.664062 212.839844 312.789062 C 212.839844 311.914062 212.113281 311.1875 211.238281 311.1875 C 210.511719 311.039062 209.636719 311.769531 209.636719 312.789062 Z M 354.621094 311.769531 C 354.039062 312.351562 354.039062 313.515625 354.621094 314.097656 C 355.203125 314.683594 356.367188 314.683594 356.949219 314.097656 C 357.53125 313.515625 357.53125 312.351562 356.949219 311.769531 C 356.222656 311.1875 355.203125 311.1875 354.621094 311.769531 Z M 347.488281 318.90625 C 346.90625 319.488281 346.90625 320.65625 347.488281 321.238281 C 348.070312 321.820312 349.234375 321.820312 349.816406 321.238281 C 350.398438 320.65625 350.398438 319.488281 349.816406 318.90625 C 349.234375 318.179688 348.070312 318.179688 347.488281 318.90625 Z M 209.636719 322.839844 C 209.636719 323.714844 210.367188 324.441406 211.238281 324.441406 C 212.113281 324.441406 212.839844 323.714844 212.839844 322.839844 C 212.839844 321.964844 212.113281 321.238281 211.238281 321.238281 C 210.511719 321.089844 209.636719 321.820312 209.636719 322.839844 Z M 340.355469 325.898438 C 339.773438 326.480469 339.773438 327.648438 340.355469 328.230469 C 340.9375 328.8125 342.101562 328.8125 342.683594 328.230469 C 343.265625 327.648438 343.265625 326.480469 342.683594 325.898438 C 342.101562 325.316406 340.9375 325.316406 340.355469 325.898438 Z M 333.222656 333.035156 C 332.640625 333.621094 332.640625 334.785156 333.222656 335.367188 C 333.804688 335.949219 334.96875 335.949219 335.550781 335.367188 C 336.132812 334.785156 336.132812 333.621094 335.550781 333.035156 C 334.96875 332.453125 333.949219 332.453125 333.222656 333.035156 Z M 326.234375 340.175781 C 325.652344 340.757812 325.652344 341.921875 326.234375 342.503906 C 326.816406 343.089844 327.980469 343.089844 328.5625 342.503906 C 329.144531 341.921875 329.144531 340.757812 328.5625 340.175781 C 327.835938 339.445312 326.816406 339.445312 326.234375 340.175781 Z M 209.636719 342.796875 C 209.636719 343.671875 210.367188 344.398438 211.238281 344.398438 C 212.113281 344.398438 212.839844 343.671875 212.839844 342.796875 C 212.839844 341.921875 212.113281 341.195312 211.238281 341.195312 C 210.511719 341.195312 209.636719 341.921875 209.636719 342.796875 Z M 370.632812 272.4375 L 370.632812 346.730469 L 407.75 309.582031 Z M 319.101562 347.3125 C 318.519531 347.894531 318.519531 349.0625 319.101562 349.644531 C 319.683594 350.226562 320.847656 350.226562 321.429688 349.644531 C 322.011719 349.0625 322.011719 347.894531 321.429688 347.3125 C 320.847656 346.585938 319.683594 346.585938 319.101562 347.3125 Z M 209.636719 352.847656 C 209.636719 353.722656 210.367188 354.449219 211.238281 354.449219 C 212.113281 354.449219 212.839844 353.722656 212.839844 352.847656 C 212.839844 351.972656 212.113281 351.246094 211.238281 351.246094 C 210.511719 351.246094 209.636719 351.972656 209.636719 352.847656 Z M 311.96875 354.304688 C 311.386719 354.886719 311.386719 356.054688 311.96875 356.636719 C 312.550781 357.21875 313.714844 357.21875 314.296875 356.636719 C 314.882812 356.054688 314.882812 354.886719 314.296875 354.304688 C 313.714844 353.722656 312.699219 353.722656 311.96875 354.304688 Z M 304.835938 361.441406 C 304.253906 362.027344 304.253906 363.191406 304.835938 363.773438 C 305.417969 364.355469 306.582031 364.355469 307.167969 363.773438 C 307.75 363.191406 307.75 362.027344 307.167969 361.441406 C 306.582031 360.859375 305.566406 360.859375 304.835938 361.441406 Z M 209.636719 362.898438 C 209.636719 363.773438 210.367188 364.503906 211.238281 364.503906 C 212.113281 364.503906 212.839844 363.773438 212.839844 362.898438 C 212.839844 362.027344 212.113281 361.296875 211.238281 361.296875 C 210.511719 361.296875 209.636719 362.027344 209.636719 362.898438 Z M 297.851562 368.582031 C 297.269531 369.164062 297.269531 370.328125 297.851562 370.910156 C 298.433594 371.496094 299.597656 371.496094 300.179688 370.910156 C 300.761719 370.328125 300.761719 369.164062 300.179688 368.582031 C 299.449219 367.851562 298.433594 367.851562 297.851562 368.582031 Z M 209.636719 372.949219 C 209.636719 373.824219 210.367188 374.554688 211.238281 374.554688 C 212.113281 374.554688 212.839844 373.824219 212.839844 372.949219 C 212.839844 372.078125 212.113281 371.347656 211.238281 371.347656 C 210.511719 371.347656 209.636719 372.078125 209.636719 372.949219 Z M 290.71875 375.71875 C 290.136719 376.300781 290.136719 377.46875 290.71875 378.050781 C 291.300781 378.632812 292.464844 378.632812 293.046875 378.050781 C 293.628906 377.46875 293.628906 376.300781 293.046875 375.71875 C 292.464844 374.992188 291.300781 374.992188 290.71875 375.71875 Z M 117.351562 186.054688 C 116.1875 185.617188 115.3125 184.449219 115.3125 183.140625 C 115.3125 181.539062 116.621094 180.082031 118.371094 180.082031 C 119.96875 180.082031 121.425781 181.390625 121.425781 183.140625 C 121.425781 184.449219 120.550781 185.617188 119.386719 186.054688 L 119.386719 377.46875 C 120.550781 377.902344 121.425781 379.070312 121.425781 380.378906 C 121.425781 381.984375 120.117188 383.4375 118.371094 383.4375 C 116.769531 383.4375 115.3125 382.128906 115.3125 380.378906 C 115.3125 379.070312 116.1875 377.902344 117.351562 377.46875 Z M 209.636719 383.003906 C 209.636719 383.875 210.367188 384.605469 211.238281 384.605469 C 212.113281 384.605469 212.839844 383.875 212.839844 383.003906 C 212.839844 382.128906 212.113281 381.398438 211.238281 381.398438 C 210.511719 381.398438 209.636719 382.128906 209.636719 383.003906 Z M 283.585938 382.710938 C 283.003906 383.292969 283.003906 384.460938 283.585938 385.042969 C 284.167969 385.625 285.332031 385.625 285.914062 385.042969 C 286.496094 384.460938 286.496094 383.292969 285.914062 382.710938 C 285.332031 382.128906 284.3125 382.128906 283.585938 382.710938 Z M 276.453125 389.847656 C 275.871094 390.433594 275.871094 391.597656 276.453125 392.179688 C 277.035156 392.761719 278.199219 392.761719 278.78125 392.179688 C 279.363281 391.597656 279.363281 390.433594 278.78125 389.847656 C 278.199219 389.265625 277.179688 389.265625 276.453125 389.847656 Z M 209.636719 393.054688 C 209.636719 393.929688 210.367188 394.65625 211.238281 394.65625 C 212.113281 394.65625 212.839844 393.929688 212.839844 393.054688 C 212.839844 392.179688 212.113281 391.453125 211.238281 391.453125 C 210.511719 391.453125 209.636719 392.179688 209.636719 393.054688 Z M 269.464844 396.988281 C 268.882812 397.570312 268.882812 398.734375 269.464844 399.316406 C 270.046875 399.902344 271.210938 399.902344 271.792969 399.316406 C 272.375 398.734375 272.375 397.570312 271.792969 396.988281 C 271.066406 396.257812 270.046875 396.257812 269.464844 396.988281 Z M 209.636719 403.105469 C 209.636719 403.980469 210.367188 404.707031 211.238281 404.707031 C 212.113281 404.707031 212.839844 403.980469 212.839844 403.105469 C 212.839844 402.230469 212.113281 401.503906 211.238281 401.503906 C 210.511719 401.503906 209.636719 402.230469 209.636719 403.105469 Z M 262.332031 404.125 C 261.75 404.707031 261.75 405.871094 262.332031 406.457031 C 262.914062 407.039062 264.078125 407.039062 264.660156 406.457031 C 265.242188 405.871094 265.242188 404.707031 264.660156 404.125 C 264.078125 403.398438 262.914062 403.398438 262.332031 404.125 Z M 255.199219 411.117188 C 254.617188 411.699219 254.617188 412.867188 255.199219 413.449219 C 255.78125 414.03125 256.945312 414.03125 257.527344 413.449219 C 258.109375 412.867188 258.109375 411.699219 257.527344 411.117188 C 256.945312 410.535156 255.925781 410.535156 255.199219 411.117188 Z M 209.636719 413.15625 C 209.636719 414.03125 210.367188 414.757812 211.238281 414.757812 C 212.113281 414.757812 212.839844 414.03125 212.839844 413.15625 C 212.839844 412.28125 212.113281 411.554688 211.238281 411.554688 C 210.511719 411.554688 209.636719 412.28125 209.636719 413.15625 Z M 248.066406 418.253906 C 247.484375 418.839844 247.484375 420.003906 248.066406 420.585938 C 248.648438 421.167969 249.8125 421.167969 250.394531 420.585938 C 250.976562 420.003906 250.976562 418.839844 250.394531 418.253906 C 249.8125 417.671875 248.792969 417.671875 248.066406 418.253906 Z M 209.636719 423.207031 C 209.636719 424.082031 210.367188 424.808594 211.238281 424.808594 C 212.113281 424.808594 212.839844 424.082031 212.839844 423.207031 C 212.839844 422.335938 212.113281 421.605469 211.238281 421.605469 C 210.511719 421.460938 209.636719 422.335938 209.636719 423.207031 Z M 241.078125 425.394531 C 240.496094 425.976562 240.496094 427.140625 241.078125 427.722656 C 241.660156 428.304688 242.828125 428.304688 243.410156 427.722656 C 243.992188 427.140625 243.992188 425.976562 243.410156 425.394531 C 242.679688 424.664062 241.660156 424.664062 241.078125 425.394531 Z M 209.636719 433.257812 C 209.636719 434.132812 210.367188 434.863281 211.238281 434.863281 C 212.113281 434.863281 212.839844 434.132812 212.839844 433.257812 C 212.839844 432.386719 212.113281 431.65625 211.238281 431.65625 C 210.511719 431.511719 209.636719 432.386719 209.636719 433.257812 Z M 209.636719 443.3125 C 209.636719 444.183594 210.367188 444.914062 211.238281 444.914062 C 212.113281 444.914062 212.839844 444.183594 212.839844 443.3125 C 212.839844 442.4375 212.113281 441.707031 211.238281 441.707031 C 210.511719 441.5625 209.636719 442.292969 209.636719 443.3125 Z M 209.636719 453.363281 C 209.636719 454.234375 210.367188 454.964844 211.238281 454.964844 C 212.113281 454.964844 212.839844 454.234375 212.839844 453.363281 C 212.839844 452.488281 212.113281 451.761719 211.238281 451.761719 C 210.511719 451.613281 209.636719 452.34375 209.636719 453.363281 Z M 209.636719 463.414062 C 209.636719 464.289062 210.367188 465.015625 211.238281 465.015625 C 212.113281 465.015625 212.839844 464.289062 212.839844 463.414062 C 212.839844 462.539062 212.113281 461.8125 211.238281 461.8125 C 210.511719 461.664062 209.636719 462.394531 209.636719 463.414062 Z M 306.875 474.046875 Z M 209.636719 473.464844 C 209.636719 474.339844 210.367188 475.066406 211.238281 475.066406 C 212.113281 475.066406 212.839844 474.339844 212.839844 473.464844 C 212.839844 472.589844 212.113281 471.863281 211.238281 471.863281 C 210.511719 471.71875 209.636719 472.445312 209.636719 473.464844 Z M 306.730469 473.902344 C 306.730469 474.484375 307.019531 474.921875 307.3125 475.214844 L 307.457031 475.359375 L 307.3125 475.214844 C 307.019531 474.921875 306.875 474.484375 306.730469 473.902344 C 306.730469 474.628906 307.019531 475.066406 307.3125 475.359375 C 307.601562 475.648438 308.039062 475.796875 308.621094 475.796875 C 309.640625 475.796875 310.515625 474.921875 310.515625 473.902344 C 310.515625 472.152344 308.621094 475.796875 308.621094 475.796875 C 307.601562 472.007812 306.730469 472.882812 306.730469 473.902344 Z M 236.421875 434.714844 L 236.421875 481.1875 L 366.847656 350.664062 L 366.847656 268.648438 L 236.421875 138.125 L 236.421875 432.53125 C 236.859375 433.257812 236.859375 434.132812 236.421875 434.714844 Z M 209.636719 483.515625 C 209.636719 484.390625 210.367188 485.117188 211.238281 485.117188 C 212.113281 485.117188 212.839844 484.390625 212.839844 483.515625 C 212.839844 482.640625 212.113281 481.914062 211.238281 481.914062 C 210.511719 481.769531 209.636719 482.496094 209.636719 483.515625 Z M 306.730469 485.410156 C 306.730469 486.429688 307.601562 487.304688 308.621094 487.304688 C 309.640625 487.304688 310.515625 486.429688 310.515625 485.410156 C 310.515625 484.390625 309.640625 483.515625 308.621094 483.515625 C 307.601562 483.515625 306.730469 484.390625 306.730469 485.410156 Z M 209.636719 493.566406 C 209.636719 494.441406 210.367188 495.171875 211.238281 495.171875 C 212.113281 495.171875 212.839844 494.441406 212.839844 493.566406 C 212.839844 492.695312 212.113281 491.964844 211.238281 491.964844 C 210.511719 491.820312 209.636719 492.546875 209.636719 493.566406 Z M 306.730469 497.0625 C 306.730469 498.082031 307.601562 498.957031 308.621094 498.957031 C 309.640625 498.957031 310.515625 498.082031 310.515625 497.0625 C 310.515625 496.042969 309.640625 495.171875 308.621094 495.171875 C 307.601562 495.171875 306.730469 495.898438 306.730469 497.0625 Z M 209.636719 503.472656 C 209.636719 504.347656 210.367188 505.074219 211.238281 505.074219 C 212.113281 505.074219 212.839844 504.347656 212.839844 503.472656 C 212.839844 502.601562 212.113281 501.871094 211.238281 501.871094 C 210.511719 501.871094 209.636719 502.601562 209.636719 503.472656 Z M 306.730469 508.570312 C 306.730469 509.59375 307.601562 510.464844 308.621094 510.464844 C 309.640625 510.464844 310.515625 509.59375 310.515625 508.570312 C 310.515625 507.550781 309.640625 506.679688 308.621094 506.679688 C 307.601562 506.679688 306.730469 507.550781 306.730469 508.570312 Z M 209.636719 513.523438 C 209.636719 514.398438 210.367188 515.128906 211.238281 515.128906 C 212.113281 515.128906 212.839844 514.398438 212.839844 513.523438 C 212.839844 512.652344 212.113281 511.921875 211.238281 511.921875 C 210.511719 511.921875 209.636719 512.652344 209.636719 513.523438 Z M 306.730469 520.082031 C 306.730469 521.101562 307.601562 521.972656 308.621094 521.972656 C 309.640625 521.972656 310.515625 521.101562 310.515625 520.082031 C 310.515625 519.0625 309.640625 518.1875 308.621094 518.1875 C 307.601562 518.1875 306.730469 519.0625 306.730469 520.082031 Z M 209.636719 523.578125 C 209.636719 524.449219 210.367188 525.179688 211.238281 525.179688 C 212.113281 525.179688 212.839844 524.449219 212.839844 523.578125 C 212.839844 522.703125 212.113281 521.972656 211.238281 521.972656 C 210.511719 521.972656 209.636719 522.703125 209.636719 523.578125 Z M 306.730469 531.734375 C 306.730469 532.753906 307.601562 533.628906 308.621094 533.628906 C 309.640625 533.628906 310.515625 532.753906 310.515625 531.734375 C 310.515625 530.714844 309.640625 529.839844 308.621094 529.839844 C 307.601562 529.695312 306.730469 530.570312 306.730469 531.734375 Z M 209.636719 533.628906 C 209.636719 534.5 210.367188 535.230469 211.238281 535.230469 C 212.113281 535.230469 212.839844 534.5 212.839844 533.628906 C 212.839844 532.753906 212.113281 532.027344 211.238281 532.027344 C 210.511719 532.027344 209.636719 532.753906 209.636719 533.628906 Z M 306.730469 543.242188 C 306.730469 544.261719 307.601562 545.136719 308.621094 545.136719 C 309.640625 545.136719 310.515625 544.261719 310.515625 543.242188 C 310.515625 542.222656 309.640625 541.347656 308.621094 541.347656 C 307.601562 541.347656 306.730469 542.222656 306.730469 543.242188 Z M 209.636719 543.679688 C 209.636719 544.554688 210.367188 545.28125 211.238281 545.28125 C 212.113281 545.28125 212.839844 544.554688 212.839844 543.679688 C 212.839844 542.804688 212.113281 542.078125 211.238281 542.078125 C 210.511719 542.078125 209.636719 542.804688 209.636719 543.679688 Z M 209.636719 553.730469 C 209.636719 554.605469 210.367188 555.332031 211.238281 555.332031 C 212.113281 555.332031 212.839844 554.605469 212.839844 553.730469 C 212.839844 552.855469 212.113281 552.128906 211.238281 552.128906 C 210.511719 552.128906 209.636719 552.855469 209.636719 553.730469 Z M 306.730469 554.75 C 306.730469 555.769531 307.601562 556.644531 308.621094 556.644531 C 309.640625 556.644531 310.515625 555.769531 310.515625 554.75 C 310.515625 553.730469 309.640625 552.855469 308.621094 552.855469 C 307.601562 552.855469 306.730469 553.730469 306.730469 554.75 Z M 209.636719 563.78125 C 209.636719 564.65625 210.367188 565.382812 211.238281 565.382812 C 212.113281 565.382812 212.839844 564.65625 212.839844 563.78125 C 212.839844 562.90625 212.113281 562.179688 211.238281 562.179688 C 210.511719 562.179688 209.636719 562.90625 209.636719 563.78125 Z M 306.730469 566.257812 C 306.730469 567.277344 307.601562 568.152344 308.621094 568.152344 C 309.640625 568.152344 310.515625 567.277344 310.515625 566.257812 C 310.515625 565.238281 309.640625 564.363281 308.621094 564.363281 C 307.601562 564.363281 306.730469 565.238281 306.730469 566.257812 Z M 209.636719 573.832031 C 209.636719 574.707031 210.367188 575.4375 211.238281 575.4375 C 212.113281 575.4375 212.839844 574.707031 212.839844 573.832031 C 212.839844 572.960938 212.113281 572.230469 211.238281 572.230469 C 210.511719 572.230469 209.636719 572.960938 209.636719 573.832031 Z M 306.730469 577.914062 C 306.730469 578.933594 307.601562 579.804688 308.621094 579.804688 C 309.640625 579.804688 310.515625 578.933594 310.515625 577.914062 C 310.515625 576.894531 309.640625 576.019531 308.621094 576.019531 C 307.601562 575.871094 306.730469 576.746094 306.730469 577.914062 Z M 209.636719 583.886719 C 209.636719 584.757812 210.367188 585.488281 211.238281 585.488281 C 212.113281 585.488281 212.839844 584.757812 212.839844 583.886719 C 212.839844 583.011719 212.113281 582.28125 211.238281 582.28125 C 210.511719 582.136719 209.636719 583.011719 209.636719 583.886719 Z M 306.730469 589.421875 C 306.730469 590.441406 307.601562 591.3125 308.621094 591.3125 C 309.640625 591.3125 310.515625 590.441406 310.515625 589.421875 C 310.515625 588.402344 309.640625 587.527344 308.621094 587.527344 C 307.601562 587.527344 306.730469 588.402344 306.730469 589.421875 Z M 209.636719 593.9375 C 209.636719 594.808594 210.367188 595.539062 211.238281 595.539062 C 212.113281 595.539062 212.839844 594.808594 212.839844 593.9375 C 212.839844 593.0625 212.113281 592.332031 211.238281 592.332031 C 210.511719 592.1875 209.636719 593.0625 209.636719 593.9375 Z M 306.730469 600.929688 C 306.730469 601.949219 307.601562 602.824219 308.621094 602.824219 C 309.640625 602.824219 310.515625 601.949219 310.515625 600.929688 C 310.515625 599.910156 309.640625 599.035156 308.621094 599.035156 C 307.601562 599.035156 306.730469 599.910156 306.730469 600.929688 Z M 209.636719 603.988281 C 209.636719 604.863281 210.367188 605.589844 211.238281 605.589844 C 212.113281 605.589844 212.839844 604.863281 212.839844 603.988281 C 212.839844 603.113281 212.113281 602.386719 211.238281 602.386719 C 210.511719 602.238281 209.636719 603.113281 209.636719 603.988281 Z M 306.730469 612.582031 C 306.730469 613.601562 307.601562 614.476562 308.621094 614.476562 C 309.640625 614.476562 310.515625 613.601562 310.515625 612.582031 C 310.515625 611.5625 309.640625 610.6875 308.621094 610.6875 C 307.601562 610.542969 306.730469 611.417969 306.730469 612.582031 Z M 209.636719 614.039062 C 209.636719 614.914062 210.367188 615.640625 211.238281 615.640625 C 212.113281 615.640625 212.839844 614.914062 212.839844 614.039062 C 212.839844 613.164062 212.113281 612.4375 211.238281 612.4375 C 210.511719 612.292969 209.636719 613.019531 209.636719 614.039062 Z M 209.636719 624.089844 C 209.636719 624.964844 210.367188 625.691406 211.238281 625.691406 C 212.113281 625.691406 212.839844 624.964844 212.839844 624.089844 C 212.839844 623.214844 212.113281 622.488281 211.238281 622.488281 C 210.511719 622.34375 209.636719 623.070312 209.636719 624.089844 Z M 306.730469 624.089844 C 306.730469 625.109375 307.601562 625.984375 308.621094 625.984375 C 309.640625 625.984375 310.515625 625.109375 310.515625 624.089844 C 310.515625 623.070312 309.640625 622.195312 308.621094 622.195312 C 307.601562 622.195312 306.730469 622.925781 306.730469 624.089844 Z M 202.796875 628.460938 L 80.375 505.949219 L 202.796875 383.4375 Z M 209.636719 634.140625 C 209.636719 635.015625 210.367188 635.746094 211.238281 635.746094 C 212.113281 635.746094 212.839844 635.015625 212.839844 634.140625 C 212.839844 633.269531 212.113281 632.539062 211.238281 632.539062 C 210.511719 632.394531 209.636719 633.121094 209.636719 634.140625 Z M 306.730469 635.597656 C 306.730469 636.617188 307.601562 637.492188 308.621094 637.492188 C 309.640625 637.492188 310.515625 636.617188 310.515625 635.597656 C 310.515625 634.578125 309.640625 633.703125 308.621094 633.703125 C 307.601562 633.703125 306.730469 634.578125 306.730469 635.597656 Z M 209.636719 644.191406 C 209.636719 645.066406 210.367188 645.796875 211.238281 645.796875 C 212.113281 645.796875 212.839844 645.066406 212.839844 644.191406 C 212.839844 643.320312 212.113281 642.589844 211.238281 642.589844 C 210.511719 642.445312 209.636719 643.171875 209.636719 644.191406 Z M 306.730469 647.105469 C 306.730469 648.125 307.601562 649 308.621094 649 C 309.640625 649 310.515625 648.125 310.515625 647.105469 C 310.515625 646.085938 309.640625 645.214844 308.621094 645.214844 C 307.601562 645.214844 306.730469 646.085938 306.730469 647.105469 Z M 209.636719 654.246094 C 209.636719 655.117188 210.367188 655.847656 211.238281 655.847656 C 212.113281 655.847656 212.839844 655.117188 212.839844 654.246094 C 212.839844 653.371094 212.113281 652.640625 211.238281 652.640625 C 210.511719 652.496094 209.636719 653.226562 209.636719 654.246094 Z M 306.730469 658.761719 C 306.730469 659.78125 307.601562 660.65625 308.621094 660.65625 C 309.640625 660.65625 310.515625 659.78125 310.515625 658.761719 C 310.515625 657.742188 309.640625 656.867188 308.621094 656.867188 C 307.601562 656.722656 306.730469 657.59375 306.730469 658.761719 Z M 209.636719 664.152344 C 209.636719 665.023438 210.367188 665.753906 211.238281 665.753906 C 212.113281 665.753906 212.839844 665.023438 212.839844 664.152344 C 212.839844 663.277344 212.113281 662.546875 211.238281 662.546875 C 210.511719 662.546875 209.636719 663.277344 209.636719 664.152344 Z M 306.730469 670.269531 C 306.730469 671.289062 307.601562 672.164062 308.621094 672.164062 C 309.640625 672.164062 310.515625 671.289062 310.515625 670.269531 C 310.515625 669.25 309.640625 668.375 308.621094 668.375 C 307.601562 668.375 306.730469 669.25 306.730469 670.269531 Z M 209.636719 674.203125 C 209.636719 675.074219 210.367188 675.804688 211.238281 675.804688 C 212.113281 675.804688 212.839844 675.074219 212.839844 674.203125 C 212.839844 673.328125 212.113281 672.597656 211.238281 672.597656 C 210.511719 672.597656 209.636719 673.328125 209.636719 674.203125 Z M 306.730469 681.777344 C 306.730469 682.796875 307.601562 683.671875 308.621094 683.671875 C 309.640625 683.671875 310.515625 682.796875 310.515625 681.777344 C 310.515625 680.757812 309.640625 679.882812 308.621094 679.882812 C 307.601562 679.882812 306.730469 680.757812 306.730469 681.777344 Z M 210.367188 682.941406 C 209.929688 683.234375 209.636719 683.816406 209.636719 684.253906 C 209.636719 685.128906 210.367188 685.855469 211.238281 685.855469 C 212.113281 685.855469 212.839844 685.128906 212.839844 684.253906 C 212.839844 683.671875 212.550781 683.234375 212.113281 682.941406 C 212.257812 682.941406 212.257812 682.796875 212.402344 682.796875 C 212.984375 682.214844 212.984375 681.046875 212.402344 680.464844 L 38.164062 505.949219 L 210.074219 333.910156 C 210.367188 334.203125 210.800781 334.492188 211.382812 334.492188 C 212.257812 334.492188 212.984375 333.765625 212.984375 332.890625 C 212.984375 332.453125 212.695312 331.871094 212.402344 331.578125 L 212.550781 331.433594 C 213.132812 330.851562 213.132812 329.6875 212.550781 329.105469 C 211.96875 328.519531 210.800781 328.519531 210.21875 329.105469 L 34.667969 504.785156 C 34.085938 505.367188 34.085938 506.53125 34.667969 507.117188 L 210.21875 682.796875 C 210.21875 682.796875 210.367188 682.941406 210.367188 682.941406 Z M 209.636719 694.304688 C 209.636719 695.179688 210.367188 695.90625 211.238281 695.90625 C 212.113281 695.90625 212.839844 695.179688 212.839844 694.304688 C 212.839844 693.429688 212.113281 692.703125 211.238281 692.703125 C 210.511719 692.703125 209.636719 693.429688 209.636719 694.304688 Z M 314.445312 695.761719 C 314.445312 698.964844 311.824219 701.589844 308.621094 701.589844 C 305.417969 701.589844 302.800781 698.964844 302.800781 695.761719 C 302.800781 692.558594 305.417969 689.933594 308.621094 689.933594 C 311.96875 689.933594 314.445312 692.558594 314.445312 695.761719 Z M 210.511719 705.8125 C 209.929688 705.523438 209.636719 704.9375 209.636719 704.355469 C 209.636719 703.480469 210.367188 702.753906 211.238281 702.753906 C 212.113281 702.753906 212.839844 703.480469 212.839844 704.355469 C 212.839844 704.9375 212.550781 705.523438 211.96875 705.8125 C 216.1875 706.25 219.535156 709.746094 219.535156 714.117188 C 219.535156 718.777344 215.75 722.417969 211.238281 722.417969 C 206.726562 722.417969 202.941406 718.632812 202.941406 714.117188 C 203.085938 709.890625 206.289062 706.25 210.511719 705.8125 Z M 233.074219 71.992188 C 227.105469 71.117188 222.449219 66.019531 222.449219 59.753906 C 222.449219 52.910156 227.980469 47.371094 234.820312 47.371094 C 241.660156 47.371094 247.195312 52.910156 247.195312 59.753906 C 247.195312 66.019531 242.535156 71.117188 236.566406 71.992188 L 236.566406 133.320312 L 366.992188 263.84375 L 366.992188 221.160156 C 364.808594 220.433594 363.207031 218.246094 363.207031 215.769531 C 363.207031 212.566406 365.828125 209.945312 369.03125 209.945312 C 372.234375 209.945312 374.851562 212.566406 374.851562 215.769531 C 374.851562 218.246094 373.253906 220.433594 371.070312 221.160156 L 371.070312 267.628906 L 411.828125 308.417969 C 412.410156 309 412.410156 310.167969 411.828125 310.75 L 371.070312 351.539062 L 371.070312 605.589844 C 371.070312 606.609375 370.195312 607.484375 369.175781 607.484375 C 368.15625 607.484375 367.285156 606.609375 367.285156 605.589844 L 367.285156 355.324219 L 236.859375 485.847656 L 236.859375 748.058594 C 241.660156 748.785156 245.15625 753.011719 245.15625 757.964844 C 245.15625 763.5 240.644531 768.015625 235.113281 768.015625 C 229.582031 768.015625 225.066406 763.5 225.066406 757.964844 C 225.066406 753.011719 228.707031 748.785156 233.363281 748.058594 L 233.363281 71.992188 Z M 233.074219 71.992188 " fill-opacity="1" fill-rule="evenodd"/></g></svg>