<svg xmlns="http://www.w3.org/2000/svg" xmlns:xlink="http://www.w3.org/1999/xlink" width="1200" zoomAndPan="magnify" viewBox="0 0 900 1874.999927" height="2500" preserveAspectRatio="xMidYMid meet" version="1.0"><path fill="#f9bd06" d="M 461.894531 34.519531 C 459.558594 36.472656 459.167969 40.375 461.117188 42.714844 C 550.320312 153.550781 507.863281 207.40625 462.675781 264.382812 C 418.65625 319.800781 373.082031 377.167969 452.546875 485.273438 C 452.9375 486.050781 453.328125 486.832031 453.714844 487.222656 C 542.917969 598.058594 500.460938 651.914062 455.273438 708.890625 C 409.308594 767.039062 361.394531 827.140625 456.832031 945.390625 C 457.222656 945.78125 457.613281 946.171875 458.390625 946.5625 C 536.6875 1050.371094 495.394531 1102.664062 451.378906 1157.691406 C 407.363281 1212.71875 361.785156 1270.476562 441.25 1378.582031 C 441.640625 1379.359375 442.03125 1380.140625 442.417969 1380.921875 C 531.621094 1491.757812 489.164062 1545.613281 443.976562 1602.589844 C 396.84375 1661.519531 349.320312 1721.621094 444.367188 1839.480469 C 446.316406 1841.820312 450.210938 1842.210938 452.546875 1840.261719 C 454.882812 1838.308594 455.273438 1834.40625 453.328125 1832.066406 C 364.121094 1721.230469 406.582031 1667.375 451.769531 1610.394531 C 478.257812 1576.832031 505.523438 1542.878906 505.523438 1497.21875 C 505.523438 1467.171875 493.839844 1432.046875 462.285156 1389.117188 C 461.894531 1388.335938 461.894531 1387.558594 461.117188 1386.777344 C 371.914062 1275.941406 414.371094 1222.085938 459.558594 1165.109375 C 486.046875 1131.546875 513.316406 1097.59375 513.316406 1051.933594 C 513.316406 1018.371094 498.511719 978.5625 458.390625 928.609375 C 458 928.21875 457.613281 927.828125 456.832031 927.4375 C 378.535156 823.628906 419.828125 771.332031 463.453125 716.308594 C 489.941406 682.746094 517.210938 648.792969 517.210938 603.132812 C 517.210938 573.082031 505.523438 538.347656 473.972656 495.027344 C 473.582031 494.246094 473.191406 493.46875 472.804688 493.078125 C 383.601562 382.242188 426.058594 328.386719 471.246094 271.410156 C 497.734375 237.847656 525 203.894531 525 158.234375 C 525 124.671875 510.199219 84.863281 470.078125 34.910156 C 468.128906 32.957031 464.621094 32.570312 461.894531 34.519531 Z M 461.894531 34.519531 " fill-opacity="1" fill-rule="nonzero"/></svg>