<svg xmlns="http://www.w3.org/2000/svg" xmlns:xlink="http://www.w3.org/1999/xlink" width="1920" zoomAndPan="magnify" viewBox="0 0 1440 809.999993" height="1080" preserveAspectRatio="xMidYMid meet" version="1.0"><defs><clipPath id="a72f35e792"><path d="M 112.5 246 L 1327.5 246 L 1327.5 336 L 112.5 336 Z M 112.5 246 " clip-rule="nonzero"/></clipPath></defs><g clip-path="url(#a72f35e792)"><path fill="#f9bd06" d="M 112.5 246.394531 C 176.480469 246.394531 209.441406 262.585938 240.460938 278.128906 C 270.191406 293.023438 297.980469 306.625 355.5 306.625 C 413.019531 306.625 440.808594 292.375 470.539062 278.128906 C 502.203125 262.585938 534.519531 246.394531 598.5 246.394531 C 662.480469 246.394531 695.441406 262.585938 726.460938 278.128906 C 756.191406 293.023438 783.980469 306.625 841.5 306.625 C 899.019531 306.625 926.808594 292.375 956.539062 278.128906 C 988.203125 262.585938 1020.519531 246.394531 1084.5 246.394531 C 1148.480469 246.394531 1181.441406 262.585938 1212.460938 278.128906 C 1242.191406 293.023438 1269.980469 306.625 1327.5 306.625 L 1327.5 335.117188 C 1263.519531 335.117188 1230.558594 318.929688 1199.539062 303.386719 C 1169.808594 288.492188 1142.019531 274.890625 1084.5 274.890625 C 1026.980469 274.890625 999.191406 289.136719 969.460938 303.386719 C 937.796875 318.929688 905.480469 335.117188 841.5 335.117188 C 777.519531 335.117188 744.558594 318.929688 713.539062 303.386719 C 683.808594 288.492188 656.019531 274.890625 598.5 274.890625 C 540.980469 274.890625 513.191406 289.136719 483.460938 303.386719 C 451.796875 318.929688 419.480469 335.117188 355.5 335.117188 C 291.519531 335.117188 258.558594 318.929688 227.539062 303.386719 C 197.808594 288.492188 170.019531 274.890625 112.5 274.890625 Z M 112.5 246.394531 " fill-opacity="1" fill-rule="nonzero"/></g></svg>